<mxfile host="app.diagrams.net" modified="2023-05-21T16:04:48.961Z" agent="Mozilla/5.0 (Windows NT 10.0; Win64; x64) AppleWebKit/537.36 (KHTML, like Gecko) Chrome/113.0.0.0 Safari/537.36" etag="W2eFgq9x5fOMy1pVUkRb" version="21.3.2" type="google" pages="3">
  <diagram name="Trang-1" id="u6LC7K_T5ykVLmXGvFyr">
    <mxGraphModel dx="1120" dy="452" grid="1" gridSize="10" guides="1" tooltips="1" connect="1" arrows="1" fold="1" page="1" pageScale="1" pageWidth="827" pageHeight="1169" math="0" shadow="0">
      <root>
        <mxCell id="0" />
        <mxCell id="1" parent="0" />
        <mxCell id="649fkTg_UH0jOj1KD3sJ-1" value="Molas" style="rounded=1;whiteSpace=wrap;html=1;fontSize=15;" parent="1" vertex="1">
          <mxGeometry x="323" y="80" width="140" height="80" as="geometry" />
        </mxCell>
        <mxCell id="649fkTg_UH0jOj1KD3sJ-6" value="" style="edgeStyle=orthogonalEdgeStyle;rounded=0;orthogonalLoop=1;jettySize=auto;html=1;entryX=0.307;entryY=-0.006;entryDx=0;entryDy=0;entryPerimeter=0;" parent="1" source="649fkTg_UH0jOj1KD3sJ-2" target="649fkTg_UH0jOj1KD3sJ-1" edge="1">
          <mxGeometry relative="1" as="geometry">
            <mxPoint x="313" y="50" as="targetPoint" />
            <Array as="points">
              <mxPoint x="366" y="60" />
            </Array>
          </mxGeometry>
        </mxCell>
        <mxCell id="649fkTg_UH0jOj1KD3sJ-2" value="&lt;font style=&quot;font-size: 15px;&quot;&gt;Nhà tuyển dụng&lt;/font&gt;" style="rounded=0;whiteSpace=wrap;html=1;" parent="1" vertex="1">
          <mxGeometry x="53" y="20" width="120" height="60" as="geometry" />
        </mxCell>
        <mxCell id="649fkTg_UH0jOj1KD3sJ-3" value="&lt;span style=&quot;font-size: 15px;&quot;&gt;Ứng viên&lt;/span&gt;" style="rounded=0;whiteSpace=wrap;html=1;" parent="1" vertex="1">
          <mxGeometry x="633" y="90" width="120" height="60" as="geometry" />
        </mxCell>
        <mxCell id="649fkTg_UH0jOj1KD3sJ-4" value="&lt;span style=&quot;font-size: 15px;&quot;&gt;Quản trị viên&lt;/span&gt;" style="rounded=0;whiteSpace=wrap;html=1;" parent="1" vertex="1">
          <mxGeometry x="53" y="180" width="120" height="60" as="geometry" />
        </mxCell>
        <mxCell id="649fkTg_UH0jOj1KD3sJ-7" value="Thông tin tuyển dụng" style="text;html=1;align=center;verticalAlign=middle;resizable=0;points=[];autosize=1;strokeColor=none;fillColor=none;" parent="1" vertex="1">
          <mxGeometry x="183" y="60" width="140" height="30" as="geometry" />
        </mxCell>
        <mxCell id="649fkTg_UH0jOj1KD3sJ-8" value="" style="edgeStyle=orthogonalEdgeStyle;rounded=0;orthogonalLoop=1;jettySize=auto;html=1;" parent="1" edge="1">
          <mxGeometry relative="1" as="geometry">
            <mxPoint x="403" y="80" as="sourcePoint" />
            <mxPoint x="173" y="41" as="targetPoint" />
            <Array as="points">
              <mxPoint x="401" y="41" />
            </Array>
          </mxGeometry>
        </mxCell>
        <mxCell id="649fkTg_UH0jOj1KD3sJ-9" value="Thông tin ứng viên" style="text;html=1;align=center;verticalAlign=middle;resizable=0;points=[];autosize=1;strokeColor=none;fillColor=none;" parent="1" vertex="1">
          <mxGeometry x="223" y="20" width="120" height="30" as="geometry" />
        </mxCell>
        <mxCell id="649fkTg_UH0jOj1KD3sJ-12" value="" style="endArrow=classic;html=1;rounded=0;exitX=0.005;exitY=0.381;exitDx=0;exitDy=0;exitPerimeter=0;" parent="1" source="649fkTg_UH0jOj1KD3sJ-3" edge="1">
          <mxGeometry width="50" height="50" relative="1" as="geometry">
            <mxPoint x="403" y="170" as="sourcePoint" />
            <mxPoint x="463" y="113" as="targetPoint" />
          </mxGeometry>
        </mxCell>
        <mxCell id="649fkTg_UH0jOj1KD3sJ-13" value="Thông tin tìm kiếm&amp;nbsp;" style="text;html=1;align=center;verticalAlign=middle;resizable=0;points=[];autosize=1;strokeColor=none;fillColor=none;" parent="1" vertex="1">
          <mxGeometry x="493" y="90" width="130" height="30" as="geometry" />
        </mxCell>
        <mxCell id="649fkTg_UH0jOj1KD3sJ-14" value="" style="endArrow=classic;html=1;rounded=0;" parent="1" edge="1">
          <mxGeometry width="50" height="50" relative="1" as="geometry">
            <mxPoint x="463" y="130" as="sourcePoint" />
            <mxPoint x="633" y="130" as="targetPoint" />
          </mxGeometry>
        </mxCell>
        <mxCell id="649fkTg_UH0jOj1KD3sJ-15" value="Thông tin bài tuyển dụng&amp;nbsp;" style="text;html=1;align=center;verticalAlign=middle;resizable=0;points=[];autosize=1;strokeColor=none;fillColor=none;" parent="1" vertex="1">
          <mxGeometry x="473" y="130" width="160" height="30" as="geometry" />
        </mxCell>
        <mxCell id="649fkTg_UH0jOj1KD3sJ-17" value="" style="endArrow=classic;html=1;rounded=0;entryX=1;entryY=0.75;entryDx=0;entryDy=0;exitX=0.572;exitY=1.042;exitDx=0;exitDy=0;exitPerimeter=0;" parent="1" source="649fkTg_UH0jOj1KD3sJ-1" target="649fkTg_UH0jOj1KD3sJ-4" edge="1">
          <mxGeometry width="50" height="50" relative="1" as="geometry">
            <mxPoint x="403" y="170" as="sourcePoint" />
            <mxPoint x="453" y="120" as="targetPoint" />
            <Array as="points">
              <mxPoint x="403" y="225" />
            </Array>
          </mxGeometry>
        </mxCell>
        <mxCell id="649fkTg_UH0jOj1KD3sJ-18" value="" style="endArrow=classic;html=1;rounded=0;entryX=0.361;entryY=1.065;entryDx=0;entryDy=0;exitX=1;exitY=0.5;exitDx=0;exitDy=0;entryPerimeter=0;" parent="1" source="649fkTg_UH0jOj1KD3sJ-4" target="649fkTg_UH0jOj1KD3sJ-1" edge="1">
          <mxGeometry width="50" height="50" relative="1" as="geometry">
            <mxPoint x="413" y="173" as="sourcePoint" />
            <mxPoint x="183" y="235" as="targetPoint" />
            <Array as="points">
              <mxPoint x="374" y="210" />
            </Array>
          </mxGeometry>
        </mxCell>
        <mxCell id="649fkTg_UH0jOj1KD3sJ-19" value="Báo cáo thống kê" style="text;html=1;align=center;verticalAlign=middle;resizable=0;points=[];autosize=1;strokeColor=none;fillColor=none;" parent="1" vertex="1">
          <mxGeometry x="212.5" y="220" width="120" height="30" as="geometry" />
        </mxCell>
        <mxCell id="649fkTg_UH0jOj1KD3sJ-22" value="Thông tin tìm kiếm" style="text;html=1;align=center;verticalAlign=middle;resizable=0;points=[];autosize=1;strokeColor=none;fillColor=none;" parent="1" vertex="1">
          <mxGeometry x="213" y="190" width="120" height="30" as="geometry" />
        </mxCell>
        <mxCell id="649fkTg_UH0jOj1KD3sJ-24" value="&lt;font style=&quot;font-size: 15px;&quot;&gt;1&lt;/font&gt;" style="swimlane;childLayout=stackLayout;horizontal=1;startSize=40;horizontalStack=0;rounded=1;fontSize=14;fontStyle=0;strokeWidth=2;resizeParent=0;resizeLast=1;shadow=0;dashed=0;align=center;arcSize=4;whiteSpace=wrap;html=1;" parent="1" vertex="1">
          <mxGeometry x="335" y="370" width="160" height="120" as="geometry" />
        </mxCell>
        <mxCell id="649fkTg_UH0jOj1KD3sJ-25" value="&lt;font style=&quot;font-size: 15px;&quot;&gt;Quản lý thông tin&lt;br&gt;&amp;nbsp;cá nhân&lt;/font&gt;" style="align=center;strokeColor=none;fillColor=none;spacingLeft=4;fontSize=12;verticalAlign=top;resizable=0;rotatable=0;part=1;html=1;" parent="649fkTg_UH0jOj1KD3sJ-24" vertex="1">
          <mxGeometry y="40" width="160" height="80" as="geometry" />
        </mxCell>
        <mxCell id="649fkTg_UH0jOj1KD3sJ-26" value="&lt;font style=&quot;font-size: 15px;&quot;&gt;2&lt;/font&gt;" style="swimlane;childLayout=stackLayout;horizontal=1;startSize=40;horizontalStack=0;rounded=1;fontSize=14;fontStyle=0;strokeWidth=2;resizeParent=0;resizeLast=1;shadow=0;dashed=0;align=center;arcSize=4;whiteSpace=wrap;html=1;" parent="1" vertex="1">
          <mxGeometry x="325" y="600" width="160" height="120" as="geometry" />
        </mxCell>
        <mxCell id="649fkTg_UH0jOj1KD3sJ-27" value="&lt;font style=&quot;font-size: 15px;&quot;&gt;Quản lý bài&amp;nbsp;&lt;br&gt;tuyển dụng&amp;nbsp;&lt;br&gt;&lt;/font&gt;" style="align=center;strokeColor=none;fillColor=none;spacingLeft=4;fontSize=12;verticalAlign=top;resizable=0;rotatable=0;part=1;html=1;" parent="649fkTg_UH0jOj1KD3sJ-26" vertex="1">
          <mxGeometry y="40" width="160" height="80" as="geometry" />
        </mxCell>
        <mxCell id="649fkTg_UH0jOj1KD3sJ-28" value="&lt;span style=&quot;font-size: 15px;&quot;&gt;3&lt;/span&gt;" style="swimlane;childLayout=stackLayout;horizontal=1;startSize=40;horizontalStack=0;rounded=1;fontSize=14;fontStyle=0;strokeWidth=2;resizeParent=0;resizeLast=1;shadow=0;dashed=0;align=center;arcSize=4;whiteSpace=wrap;html=1;" parent="1" vertex="1">
          <mxGeometry x="325" y="800" width="160" height="120" as="geometry" />
        </mxCell>
        <mxCell id="649fkTg_UH0jOj1KD3sJ-29" value="&lt;font style=&quot;font-size: 15px;&quot;&gt;Quản lý&amp;nbsp;&lt;br&gt;ứng tuyển&lt;br&gt;&lt;/font&gt;" style="align=center;strokeColor=none;fillColor=none;spacingLeft=4;fontSize=12;verticalAlign=top;resizable=0;rotatable=0;part=1;html=1;" parent="649fkTg_UH0jOj1KD3sJ-28" vertex="1">
          <mxGeometry y="40" width="160" height="80" as="geometry" />
        </mxCell>
        <mxCell id="649fkTg_UH0jOj1KD3sJ-30" value="&lt;span style=&quot;font-size: 15px;&quot;&gt;4&lt;/span&gt;" style="swimlane;childLayout=stackLayout;horizontal=1;startSize=40;horizontalStack=0;rounded=1;fontSize=14;fontStyle=0;strokeWidth=2;resizeParent=0;resizeLast=1;shadow=0;dashed=0;align=center;arcSize=4;whiteSpace=wrap;html=1;" parent="1" vertex="1">
          <mxGeometry x="325" y="1020" width="160" height="120" as="geometry" />
        </mxCell>
        <mxCell id="649fkTg_UH0jOj1KD3sJ-31" value="&lt;font style=&quot;font-size: 15px;&quot;&gt;Quản lý&amp;nbsp;&lt;br&gt;danh mục&lt;br&gt;&lt;/font&gt;" style="align=center;strokeColor=none;fillColor=none;spacingLeft=4;fontSize=12;verticalAlign=top;resizable=0;rotatable=0;part=1;html=1;" parent="649fkTg_UH0jOj1KD3sJ-30" vertex="1">
          <mxGeometry y="40" width="160" height="80" as="geometry" />
        </mxCell>
        <mxCell id="649fkTg_UH0jOj1KD3sJ-33" value="&lt;font style=&quot;font-size: 15px;&quot;&gt;Người dùng&lt;/font&gt;" style="whiteSpace=wrap;html=1;align=center;" parent="1" vertex="1">
          <mxGeometry x="15" y="395" width="100" height="70" as="geometry" />
        </mxCell>
        <mxCell id="649fkTg_UH0jOj1KD3sJ-36" value="" style="endArrow=classic;html=1;rounded=0;exitX=1;exitY=0.25;exitDx=0;exitDy=0;entryX=0;entryY=0.031;entryDx=0;entryDy=0;entryPerimeter=0;" parent="1" source="649fkTg_UH0jOj1KD3sJ-33" target="649fkTg_UH0jOj1KD3sJ-25" edge="1">
          <mxGeometry width="50" height="50" relative="1" as="geometry">
            <mxPoint x="375" y="610" as="sourcePoint" />
            <mxPoint x="335" y="420" as="targetPoint" />
          </mxGeometry>
        </mxCell>
        <mxCell id="649fkTg_UH0jOj1KD3sJ-37" value="Thông tin đăng nhập" style="text;html=1;align=center;verticalAlign=middle;resizable=0;points=[];autosize=1;strokeColor=none;fillColor=none;" parent="1" vertex="1">
          <mxGeometry x="140" y="388" width="130" height="30" as="geometry" />
        </mxCell>
        <mxCell id="649fkTg_UH0jOj1KD3sJ-38" value="" style="endArrow=classic;html=1;rounded=0;entryX=1;entryY=0.5;entryDx=0;entryDy=0;exitX=0;exitY=0.25;exitDx=0;exitDy=0;" parent="1" source="649fkTg_UH0jOj1KD3sJ-25" target="649fkTg_UH0jOj1KD3sJ-33" edge="1">
          <mxGeometry width="50" height="50" relative="1" as="geometry">
            <mxPoint x="375" y="440" as="sourcePoint" />
            <mxPoint x="425" y="390" as="targetPoint" />
          </mxGeometry>
        </mxCell>
        <mxCell id="649fkTg_UH0jOj1KD3sJ-39" value="Thông báo xác nhận" style="text;html=1;align=center;verticalAlign=middle;resizable=0;points=[];autosize=1;strokeColor=none;fillColor=none;" parent="1" vertex="1">
          <mxGeometry x="155" y="429" width="130" height="30" as="geometry" />
        </mxCell>
        <mxCell id="649fkTg_UH0jOj1KD3sJ-40" value="" style="endArrow=classic;html=1;rounded=0;exitX=0.75;exitY=0;exitDx=0;exitDy=0;entryX=0.25;entryY=0;entryDx=0;entryDy=0;" parent="1" source="649fkTg_UH0jOj1KD3sJ-33" target="649fkTg_UH0jOj1KD3sJ-24" edge="1">
          <mxGeometry width="50" height="50" relative="1" as="geometry">
            <mxPoint x="375" y="440" as="sourcePoint" />
            <mxPoint x="425" y="390" as="targetPoint" />
            <Array as="points">
              <mxPoint x="90" y="340" />
              <mxPoint x="375" y="340" />
            </Array>
          </mxGeometry>
        </mxCell>
        <mxCell id="649fkTg_UH0jOj1KD3sJ-41" value="" style="endArrow=classic;html=1;rounded=0;exitX=0.399;exitY=-0.016;exitDx=0;exitDy=0;entryX=0.5;entryY=0;entryDx=0;entryDy=0;exitPerimeter=0;" parent="1" source="649fkTg_UH0jOj1KD3sJ-24" target="649fkTg_UH0jOj1KD3sJ-33" edge="1">
          <mxGeometry width="50" height="50" relative="1" as="geometry">
            <mxPoint x="100" y="405" as="sourcePoint" />
            <mxPoint x="385" y="380" as="targetPoint" />
            <Array as="points">
              <mxPoint x="399" y="330" />
              <mxPoint x="65" y="330" />
            </Array>
          </mxGeometry>
        </mxCell>
        <mxCell id="649fkTg_UH0jOj1KD3sJ-42" value="Thông tin tài khoản" style="text;html=1;align=center;verticalAlign=middle;resizable=0;points=[];autosize=1;strokeColor=none;fillColor=none;" parent="1" vertex="1">
          <mxGeometry x="135" y="340" width="130" height="30" as="geometry" />
        </mxCell>
        <mxCell id="649fkTg_UH0jOj1KD3sJ-44" value="Thông báo cập nhật thành công" style="text;html=1;align=center;verticalAlign=middle;resizable=0;points=[];autosize=1;strokeColor=none;fillColor=none;" parent="1" vertex="1">
          <mxGeometry x="130" y="308" width="190" height="30" as="geometry" />
        </mxCell>
        <mxCell id="649fkTg_UH0jOj1KD3sJ-48" value="&amp;nbsp; &amp;nbsp; &amp;nbsp; &amp;nbsp; &amp;nbsp;Dữ liệu tài khoản" style="html=1;dashed=0;whiteSpace=wrap;shape=mxgraph.dfd.dataStoreID;align=left;spacingLeft=3;points=[[0,0],[0.5,0],[1,0],[0,0.5],[1,0.5],[0,1],[0.5,1],[1,1]];" parent="1" vertex="1">
          <mxGeometry x="625" y="429" width="150" height="41" as="geometry" />
        </mxCell>
        <mxCell id="649fkTg_UH0jOj1KD3sJ-49" value="" style="endArrow=classic;html=1;rounded=0;exitX=1;exitY=0.25;exitDx=0;exitDy=0;entryX=0.01;entryY=0.35;entryDx=0;entryDy=0;entryPerimeter=0;" parent="1" target="649fkTg_UH0jOj1KD3sJ-48" edge="1">
          <mxGeometry width="50" height="50" relative="1" as="geometry">
            <mxPoint x="495" y="444" as="sourcePoint" />
            <mxPoint x="625" y="440" as="targetPoint" />
          </mxGeometry>
        </mxCell>
        <mxCell id="649fkTg_UH0jOj1KD3sJ-50" value="Thông tin đăng nhập" style="text;html=1;align=center;verticalAlign=middle;resizable=0;points=[];autosize=1;strokeColor=none;fillColor=none;" parent="1" vertex="1">
          <mxGeometry x="495" y="418" width="130" height="30" as="geometry" />
        </mxCell>
        <mxCell id="649fkTg_UH0jOj1KD3sJ-51" value="" style="endArrow=classic;html=1;rounded=0;entryX=1;entryY=0.5;entryDx=0;entryDy=0;exitX=-0.015;exitY=0.791;exitDx=0;exitDy=0;exitPerimeter=0;" parent="1" source="649fkTg_UH0jOj1KD3sJ-48" edge="1">
          <mxGeometry width="50" height="50" relative="1" as="geometry">
            <mxPoint x="715" y="461" as="sourcePoint" />
            <mxPoint x="495" y="461" as="targetPoint" />
          </mxGeometry>
        </mxCell>
        <mxCell id="649fkTg_UH0jOj1KD3sJ-52" value="Thông tin tài khoản" style="text;html=1;align=center;verticalAlign=middle;resizable=0;points=[];autosize=1;strokeColor=none;fillColor=none;" parent="1" vertex="1">
          <mxGeometry x="505" y="465" width="130" height="30" as="geometry" />
        </mxCell>
        <mxCell id="649fkTg_UH0jOj1KD3sJ-53" value="&amp;nbsp; &amp;nbsp; &amp;nbsp; &amp;nbsp; &amp;nbsp;Dữ liệu người dùng&amp;nbsp;" style="html=1;dashed=0;whiteSpace=wrap;shape=mxgraph.dfd.dataStoreID;align=left;spacingLeft=3;points=[[0,0],[0.5,0],[1,0],[0,0.5],[1,0.5],[0,1],[0.5,1],[1,1]];" parent="1" vertex="1">
          <mxGeometry x="605" y="308" width="150" height="41" as="geometry" />
        </mxCell>
        <mxCell id="649fkTg_UH0jOj1KD3sJ-54" value="" style="endArrow=classic;html=1;rounded=0;entryX=0.6;entryY=1.024;entryDx=0;entryDy=0;entryPerimeter=0;" parent="1" target="649fkTg_UH0jOj1KD3sJ-53" edge="1">
          <mxGeometry width="50" height="50" relative="1" as="geometry">
            <mxPoint x="495" y="390" as="sourcePoint" />
            <mxPoint x="125" y="440" as="targetPoint" />
            <Array as="points">
              <mxPoint x="695" y="390" />
            </Array>
          </mxGeometry>
        </mxCell>
        <mxCell id="649fkTg_UH0jOj1KD3sJ-55" value="Thông tin người dùng" style="text;html=1;align=center;verticalAlign=middle;resizable=0;points=[];autosize=1;strokeColor=none;fillColor=none;" parent="1" vertex="1">
          <mxGeometry x="535" y="370" width="140" height="30" as="geometry" />
        </mxCell>
        <mxCell id="649fkTg_UH0jOj1KD3sJ-56" value="" style="endArrow=classic;html=1;rounded=0;entryX=0.62;entryY=-0.032;entryDx=0;entryDy=0;entryPerimeter=0;exitX=-0.009;exitY=0.235;exitDx=0;exitDy=0;exitPerimeter=0;" parent="1" source="649fkTg_UH0jOj1KD3sJ-53" target="649fkTg_UH0jOj1KD3sJ-24" edge="1">
          <mxGeometry width="50" height="50" relative="1" as="geometry">
            <mxPoint x="615" y="270" as="sourcePoint" />
            <mxPoint x="705" y="360" as="targetPoint" />
            <Array as="points">
              <mxPoint x="434" y="320" />
            </Array>
          </mxGeometry>
        </mxCell>
        <mxCell id="649fkTg_UH0jOj1KD3sJ-57" value="Thông tin người dùng" style="text;html=1;align=center;verticalAlign=middle;resizable=0;points=[];autosize=1;strokeColor=none;fillColor=none;" parent="1" vertex="1">
          <mxGeometry x="445" y="290" width="140" height="30" as="geometry" />
        </mxCell>
        <mxCell id="aAyam5rV_4I70285Srx0-1" value="&lt;font style=&quot;font-size: 15px;&quot;&gt;Nhà tuyển dụng&lt;/font&gt;" style="whiteSpace=wrap;html=1;align=center;" parent="1" vertex="1">
          <mxGeometry x="15" y="625" width="100" height="70" as="geometry" />
        </mxCell>
        <mxCell id="aAyam5rV_4I70285Srx0-2" value="" style="endArrow=classic;html=1;rounded=0;exitX=1;exitY=0.25;exitDx=0;exitDy=0;entryX=0.006;entryY=0.138;entryDx=0;entryDy=0;entryPerimeter=0;" parent="1" edge="1">
          <mxGeometry width="50" height="50" relative="1" as="geometry">
            <mxPoint x="112.91999999999999" y="850" as="sourcePoint" />
            <mxPoint x="323.88000000000005" y="851.04" as="targetPoint" />
          </mxGeometry>
        </mxCell>
        <mxCell id="aAyam5rV_4I70285Srx0-3" value="Thông tin tìm kiếm" style="text;html=1;align=center;verticalAlign=middle;resizable=0;points=[];autosize=1;strokeColor=none;fillColor=none;" parent="1" vertex="1">
          <mxGeometry x="142.92" y="825" width="120" height="30" as="geometry" />
        </mxCell>
        <mxCell id="aAyam5rV_4I70285Srx0-4" value="" style="endArrow=classic;html=1;rounded=0;entryX=1;entryY=0.5;entryDx=0;entryDy=0;exitX=0.013;exitY=0.35;exitDx=0;exitDy=0;exitPerimeter=0;" parent="1" edge="1">
          <mxGeometry width="50" height="50" relative="1" as="geometry">
            <mxPoint x="324.99999999999994" y="868" as="sourcePoint" />
            <mxPoint x="112.91999999999999" y="867" as="targetPoint" />
          </mxGeometry>
        </mxCell>
        <mxCell id="aAyam5rV_4I70285Srx0-5" value="Bài viết đã ứng tuyển" style="text;html=1;align=center;verticalAlign=middle;resizable=0;points=[];autosize=1;strokeColor=none;fillColor=none;" parent="1" vertex="1">
          <mxGeometry x="137.92" y="865" width="140" height="30" as="geometry" />
        </mxCell>
        <mxCell id="aAyam5rV_4I70285Srx0-6" value="" style="endArrow=classic;html=1;rounded=0;exitX=0.75;exitY=0;exitDx=0;exitDy=0;entryX=0.25;entryY=0;entryDx=0;entryDy=0;" parent="1" edge="1">
          <mxGeometry width="50" height="50" relative="1" as="geometry">
            <mxPoint x="82.5" y="625" as="sourcePoint" />
            <mxPoint x="367.5" y="600" as="targetPoint" />
            <Array as="points">
              <mxPoint x="82.5" y="570" />
              <mxPoint x="367.5" y="570" />
            </Array>
          </mxGeometry>
        </mxCell>
        <mxCell id="aAyam5rV_4I70285Srx0-7" value="" style="endArrow=classic;html=1;rounded=0;exitX=0.399;exitY=-0.016;exitDx=0;exitDy=0;entryX=0.5;entryY=0;entryDx=0;entryDy=0;exitPerimeter=0;" parent="1" edge="1">
          <mxGeometry width="50" height="50" relative="1" as="geometry">
            <mxPoint x="387" y="598" as="sourcePoint" />
            <mxPoint x="53" y="625" as="targetPoint" />
            <Array as="points">
              <mxPoint x="387" y="560" />
              <mxPoint x="53" y="560" />
            </Array>
          </mxGeometry>
        </mxCell>
        <mxCell id="aAyam5rV_4I70285Srx0-8" value="Thông tin cập nhật bài viết&amp;nbsp;" style="text;html=1;align=center;verticalAlign=middle;resizable=0;points=[];autosize=1;strokeColor=none;fillColor=none;" parent="1" vertex="1">
          <mxGeometry x="115" y="570" width="170" height="30" as="geometry" />
        </mxCell>
        <mxCell id="aAyam5rV_4I70285Srx0-9" value="Thông báo cập nhật thành công" style="text;html=1;align=center;verticalAlign=middle;resizable=0;points=[];autosize=1;strokeColor=none;fillColor=none;" parent="1" vertex="1">
          <mxGeometry x="110" y="530" width="190" height="30" as="geometry" />
        </mxCell>
        <mxCell id="aAyam5rV_4I70285Srx0-10" value="&amp;nbsp; &amp;nbsp; &amp;nbsp; &amp;nbsp; &amp;nbsp;Dữ liệu bài viết" style="html=1;dashed=0;whiteSpace=wrap;shape=mxgraph.dfd.dataStoreID;align=left;spacingLeft=3;points=[[0,0],[0.5,0],[1,0],[0,0.5],[1,0.5],[0,1],[0.5,1],[1,1]];" parent="1" vertex="1">
          <mxGeometry x="590" y="710" width="150" height="41" as="geometry" />
        </mxCell>
        <mxCell id="aAyam5rV_4I70285Srx0-11" value="" style="endArrow=classic;html=1;rounded=0;entryX=0.327;entryY=-0.049;entryDx=0;entryDy=0;entryPerimeter=0;" parent="1" target="aAyam5rV_4I70285Srx0-10" edge="1">
          <mxGeometry width="50" height="50" relative="1" as="geometry">
            <mxPoint x="485" y="660" as="sourcePoint" />
            <mxPoint x="685" y="620" as="targetPoint" />
            <Array as="points">
              <mxPoint x="639" y="660" />
            </Array>
          </mxGeometry>
        </mxCell>
        <mxCell id="aAyam5rV_4I70285Srx0-12" value="Thông tin tìm kiếm" style="text;html=1;align=center;verticalAlign=middle;resizable=0;points=[];autosize=1;strokeColor=none;fillColor=none;" parent="1" vertex="1">
          <mxGeometry x="510" y="655" width="120" height="30" as="geometry" />
        </mxCell>
        <mxCell id="aAyam5rV_4I70285Srx0-13" value="" style="endArrow=classic;html=1;rounded=0;entryX=1.025;entryY=0.113;entryDx=0;entryDy=0;entryPerimeter=0;exitX=0.5;exitY=0;exitDx=0;exitDy=0;" parent="1" source="aAyam5rV_4I70285Srx0-10" target="649fkTg_UH0jOj1KD3sJ-27" edge="1">
          <mxGeometry width="50" height="50" relative="1" as="geometry">
            <mxPoint x="695" y="710" as="sourcePoint" />
            <mxPoint x="505" y="648" as="targetPoint" />
            <Array as="points">
              <mxPoint x="665" y="649" />
            </Array>
          </mxGeometry>
        </mxCell>
        <mxCell id="aAyam5rV_4I70285Srx0-14" value="Thông tin bài viết" style="text;html=1;align=center;verticalAlign=middle;resizable=0;points=[];autosize=1;strokeColor=none;fillColor=none;" parent="1" vertex="1">
          <mxGeometry x="530" y="625" width="110" height="30" as="geometry" />
        </mxCell>
        <mxCell id="aAyam5rV_4I70285Srx0-15" value="" style="endArrow=classic;html=1;rounded=0;entryX=0.62;entryY=-0.032;entryDx=0;entryDy=0;entryPerimeter=0;exitX=0.8;exitY=0;exitDx=0;exitDy=0;exitPerimeter=0;" parent="1" source="aAyam5rV_4I70285Srx0-10" edge="1">
          <mxGeometry width="50" height="50" relative="1" as="geometry">
            <mxPoint x="590" y="552" as="sourcePoint" />
            <mxPoint x="420" y="600" as="targetPoint" />
            <Array as="points">
              <mxPoint x="710" y="554" />
              <mxPoint x="420" y="554" />
            </Array>
          </mxGeometry>
        </mxCell>
        <mxCell id="aAyam5rV_4I70285Srx0-16" value="Thông báo thành công" style="text;html=1;align=center;verticalAlign=middle;resizable=0;points=[];autosize=1;strokeColor=none;fillColor=none;" parent="1" vertex="1">
          <mxGeometry x="425" y="530" width="140" height="30" as="geometry" />
        </mxCell>
        <mxCell id="aAyam5rV_4I70285Srx0-17" value="" style="endArrow=classic;html=1;rounded=0;entryX=0.633;entryY=0;entryDx=0;entryDy=0;exitX=0.75;exitY=0;exitDx=0;exitDy=0;entryPerimeter=0;" parent="1" source="649fkTg_UH0jOj1KD3sJ-26" target="aAyam5rV_4I70285Srx0-10" edge="1">
          <mxGeometry width="50" height="50" relative="1" as="geometry">
            <mxPoint x="365" y="500" as="sourcePoint" />
            <mxPoint x="415" y="450" as="targetPoint" />
            <Array as="points">
              <mxPoint x="445" y="570" />
              <mxPoint x="685" y="570" />
            </Array>
          </mxGeometry>
        </mxCell>
        <mxCell id="aAyam5rV_4I70285Srx0-18" value="Thông tin cập nhật" style="text;html=1;align=center;verticalAlign=middle;resizable=0;points=[];autosize=1;strokeColor=none;fillColor=none;" parent="1" vertex="1">
          <mxGeometry x="460" y="570" width="120" height="30" as="geometry" />
        </mxCell>
        <mxCell id="aAyam5rV_4I70285Srx0-20" value="&lt;span style=&quot;font-size: 15px;&quot;&gt;Ứng viên&lt;/span&gt;" style="whiteSpace=wrap;html=1;align=center;" parent="1" vertex="1">
          <mxGeometry x="15" y="825" width="100" height="70" as="geometry" />
        </mxCell>
        <mxCell id="aAyam5rV_4I70285Srx0-21" value="" style="endArrow=classic;html=1;rounded=0;exitX=0.75;exitY=0;exitDx=0;exitDy=0;entryX=0.25;entryY=0;entryDx=0;entryDy=0;" parent="1" edge="1">
          <mxGeometry width="50" height="50" relative="1" as="geometry">
            <mxPoint x="84.5" y="1045" as="sourcePoint" />
            <mxPoint x="369.5" y="1020" as="targetPoint" />
            <Array as="points">
              <mxPoint x="84.5" y="990" />
              <mxPoint x="369.5" y="990" />
            </Array>
          </mxGeometry>
        </mxCell>
        <mxCell id="aAyam5rV_4I70285Srx0-22" value="" style="endArrow=classic;html=1;rounded=0;exitX=0.399;exitY=-0.016;exitDx=0;exitDy=0;entryX=0.5;entryY=0;entryDx=0;entryDy=0;exitPerimeter=0;" parent="1" edge="1">
          <mxGeometry width="50" height="50" relative="1" as="geometry">
            <mxPoint x="389" y="1018" as="sourcePoint" />
            <mxPoint x="55" y="1045" as="targetPoint" />
            <Array as="points">
              <mxPoint x="389" y="980" />
              <mxPoint x="55" y="980" />
            </Array>
          </mxGeometry>
        </mxCell>
        <mxCell id="aAyam5rV_4I70285Srx0-23" value="Yêu cầu phê duyệt bài viết" style="text;html=1;align=center;verticalAlign=middle;resizable=0;points=[];autosize=1;strokeColor=none;fillColor=none;" parent="1" vertex="1">
          <mxGeometry x="122" y="990" width="160" height="30" as="geometry" />
        </mxCell>
        <mxCell id="aAyam5rV_4I70285Srx0-24" value="Thông báo phê duyệt thành công" style="text;html=1;align=center;verticalAlign=middle;resizable=0;points=[];autosize=1;strokeColor=none;fillColor=none;" parent="1" vertex="1">
          <mxGeometry x="108.96000000000001" y="950" width="200" height="30" as="geometry" />
        </mxCell>
        <mxCell id="aAyam5rV_4I70285Srx0-25" value="" style="endArrow=classic;html=1;rounded=0;entryX=0.5;entryY=1;entryDx=0;entryDy=0;" parent="1" target="aAyam5rV_4I70285Srx0-10" edge="1">
          <mxGeometry width="50" height="50" relative="1" as="geometry">
            <mxPoint x="485" y="825" as="sourcePoint" />
            <mxPoint x="639" y="873" as="targetPoint" />
            <Array as="points">
              <mxPoint x="665" y="825" />
            </Array>
          </mxGeometry>
        </mxCell>
        <mxCell id="aAyam5rV_4I70285Srx0-26" value="Thông tin tìm kiếm" style="text;html=1;align=center;verticalAlign=middle;resizable=0;points=[];autosize=1;strokeColor=none;fillColor=none;" parent="1" vertex="1">
          <mxGeometry x="510" y="820" width="120" height="30" as="geometry" />
        </mxCell>
        <mxCell id="aAyam5rV_4I70285Srx0-27" value="" style="endArrow=classic;html=1;rounded=0;entryX=1.025;entryY=0.113;entryDx=0;entryDy=0;entryPerimeter=0;exitX=0.32;exitY=1.073;exitDx=0;exitDy=0;exitPerimeter=0;" parent="1" source="aAyam5rV_4I70285Srx0-10" edge="1">
          <mxGeometry width="50" height="50" relative="1" as="geometry">
            <mxPoint x="665" y="875" as="sourcePoint" />
            <mxPoint x="489" y="814" as="targetPoint" />
            <Array as="points">
              <mxPoint x="638" y="814" />
            </Array>
          </mxGeometry>
        </mxCell>
        <mxCell id="aAyam5rV_4I70285Srx0-28" value="Thông tin bài viết" style="text;html=1;align=center;verticalAlign=middle;resizable=0;points=[];autosize=1;strokeColor=none;fillColor=none;" parent="1" vertex="1">
          <mxGeometry x="530" y="790" width="110" height="30" as="geometry" />
        </mxCell>
        <mxCell id="aAyam5rV_4I70285Srx0-29" value="&amp;nbsp; &amp;nbsp; &amp;nbsp; &amp;nbsp; &amp;nbsp;Dữ liệu ứng tuyển" style="html=1;dashed=0;whiteSpace=wrap;shape=mxgraph.dfd.dataStoreID;align=left;spacingLeft=3;points=[[0,0],[0.5,0],[1,0],[0,0.5],[1,0.5],[0,1],[0.5,1],[1,1]];" parent="1" vertex="1">
          <mxGeometry x="630" y="859.5" width="150" height="41" as="geometry" />
        </mxCell>
        <mxCell id="aAyam5rV_4I70285Srx0-34" value="" style="endArrow=classic;html=1;rounded=0;exitX=1;exitY=0.25;exitDx=0;exitDy=0;" parent="1" edge="1">
          <mxGeometry width="50" height="50" relative="1" as="geometry">
            <mxPoint x="485" y="875" as="sourcePoint" />
            <mxPoint x="635" y="876" as="targetPoint" />
          </mxGeometry>
        </mxCell>
        <mxCell id="aAyam5rV_4I70285Srx0-35" value="Thông tin ứng tuyển" style="text;html=1;align=center;verticalAlign=middle;resizable=0;points=[];autosize=1;strokeColor=none;fillColor=none;" parent="1" vertex="1">
          <mxGeometry x="490" y="850" width="130" height="30" as="geometry" />
        </mxCell>
        <mxCell id="aAyam5rV_4I70285Srx0-36" value="" style="endArrow=classic;html=1;rounded=0;entryX=1;entryY=0.5;entryDx=0;entryDy=0;exitX=1.014;exitY=0.1;exitDx=0;exitDy=0;exitPerimeter=0;" parent="1" source="aAyam5rV_4I70285Srx0-37" edge="1">
          <mxGeometry width="50" height="50" relative="1" as="geometry">
            <mxPoint x="697.0799999999999" y="893" as="sourcePoint" />
            <mxPoint x="485" y="892" as="targetPoint" />
          </mxGeometry>
        </mxCell>
        <mxCell id="aAyam5rV_4I70285Srx0-37" value="Thông báo ứng tuyển" style="text;html=1;align=center;verticalAlign=middle;resizable=0;points=[];autosize=1;strokeColor=none;fillColor=none;" parent="1" vertex="1">
          <mxGeometry x="490" y="890" width="140" height="30" as="geometry" />
        </mxCell>
        <mxCell id="aAyam5rV_4I70285Srx0-38" value="&lt;span style=&quot;font-size: 15px;&quot;&gt;Quản trị viên&lt;/span&gt;" style="whiteSpace=wrap;html=1;align=center;" parent="1" vertex="1">
          <mxGeometry x="15" y="1045" width="100" height="70" as="geometry" />
        </mxCell>
        <mxCell id="aAyam5rV_4I70285Srx0-39" value="" style="endArrow=classic;html=1;rounded=0;exitX=1;exitY=0.25;exitDx=0;exitDy=0;entryX=0.006;entryY=0.138;entryDx=0;entryDy=0;entryPerimeter=0;" parent="1" edge="1">
          <mxGeometry width="50" height="50" relative="1" as="geometry">
            <mxPoint x="113.95999999999998" y="1070" as="sourcePoint" />
            <mxPoint x="324.9200000000001" y="1071.04" as="targetPoint" />
          </mxGeometry>
        </mxCell>
        <mxCell id="aAyam5rV_4I70285Srx0-40" value="Thông tin chính sách" style="text;html=1;align=center;verticalAlign=middle;resizable=0;points=[];autosize=1;strokeColor=none;fillColor=none;" parent="1" vertex="1">
          <mxGeometry x="138.95999999999998" y="1045" width="130" height="30" as="geometry" />
        </mxCell>
        <mxCell id="aAyam5rV_4I70285Srx0-41" value="" style="endArrow=classic;html=1;rounded=0;entryX=1;entryY=0.5;entryDx=0;entryDy=0;exitX=0.013;exitY=0.35;exitDx=0;exitDy=0;exitPerimeter=0;" parent="1" edge="1">
          <mxGeometry width="50" height="50" relative="1" as="geometry">
            <mxPoint x="326.03999999999996" y="1088" as="sourcePoint" />
            <mxPoint x="113.95999999999998" y="1087" as="targetPoint" />
          </mxGeometry>
        </mxCell>
        <mxCell id="aAyam5rV_4I70285Srx0-42" value="Kết quả cập nhật" style="text;html=1;align=center;verticalAlign=middle;resizable=0;points=[];autosize=1;strokeColor=none;fillColor=none;" parent="1" vertex="1">
          <mxGeometry x="153.95999999999998" y="1085" width="110" height="30" as="geometry" />
        </mxCell>
        <mxCell id="aAyam5rV_4I70285Srx0-43" value="&amp;nbsp; &amp;nbsp; &amp;nbsp; &amp;nbsp; &amp;nbsp;Dữ liệu bài viết" style="html=1;dashed=0;whiteSpace=wrap;shape=mxgraph.dfd.dataStoreID;align=left;spacingLeft=3;points=[[0,0],[0.5,0],[1,0],[0,0.5],[1,0.5],[0,1],[0.5,1],[1,1]];" parent="1" vertex="1">
          <mxGeometry x="605" y="940" width="150" height="41" as="geometry" />
        </mxCell>
        <mxCell id="aAyam5rV_4I70285Srx0-44" value="" style="endArrow=classic;html=1;rounded=0;entryX=0.5;entryY=1;entryDx=0;entryDy=0;" parent="1" edge="1">
          <mxGeometry width="50" height="50" relative="1" as="geometry">
            <mxPoint x="485" y="1054" as="sourcePoint" />
            <mxPoint x="665" y="980" as="targetPoint" />
            <Array as="points">
              <mxPoint x="665" y="1054" />
            </Array>
          </mxGeometry>
        </mxCell>
        <mxCell id="aAyam5rV_4I70285Srx0-45" value="" style="endArrow=classic;html=1;rounded=0;entryX=1.025;entryY=0.113;entryDx=0;entryDy=0;entryPerimeter=0;exitX=0.32;exitY=1.073;exitDx=0;exitDy=0;exitPerimeter=0;" parent="1" edge="1">
          <mxGeometry width="50" height="50" relative="1" as="geometry">
            <mxPoint x="638" y="983" as="sourcePoint" />
            <mxPoint x="489" y="1043" as="targetPoint" />
            <Array as="points">
              <mxPoint x="638" y="1043" />
            </Array>
          </mxGeometry>
        </mxCell>
        <mxCell id="aAyam5rV_4I70285Srx0-46" value="Thông tin bài viết" style="text;html=1;align=center;verticalAlign=middle;resizable=0;points=[];autosize=1;strokeColor=none;fillColor=none;" parent="1" vertex="1">
          <mxGeometry x="530" y="1019" width="110" height="30" as="geometry" />
        </mxCell>
        <mxCell id="aAyam5rV_4I70285Srx0-47" value="Thông báo phê duyệt" style="text;html=1;align=center;verticalAlign=middle;resizable=0;points=[];autosize=1;strokeColor=none;fillColor=none;" parent="1" vertex="1">
          <mxGeometry x="515" y="1055" width="140" height="30" as="geometry" />
        </mxCell>
        <mxCell id="aAyam5rV_4I70285Srx0-49" value="&amp;nbsp; &amp;nbsp; &amp;nbsp; &amp;nbsp; &amp;nbsp;Dữ liệu hệ thống" style="html=1;dashed=0;whiteSpace=wrap;shape=mxgraph.dfd.dataStoreID;align=left;spacingLeft=3;points=[[0,0],[0.5,0],[1,0],[0,0.5],[1,0.5],[0,1],[0.5,1],[1,1]];" parent="1" vertex="1">
          <mxGeometry x="640" y="1098" width="150" height="41" as="geometry" />
        </mxCell>
        <mxCell id="aAyam5rV_4I70285Srx0-50" value="" style="endArrow=classic;html=1;rounded=0;entryX=0.007;entryY=0.268;entryDx=0;entryDy=0;entryPerimeter=0;" parent="1" edge="1">
          <mxGeometry width="50" height="50" relative="1" as="geometry">
            <mxPoint x="485" y="1110.5" as="sourcePoint" />
            <mxPoint x="641" y="1110.5" as="targetPoint" />
          </mxGeometry>
        </mxCell>
        <mxCell id="aAyam5rV_4I70285Srx0-51" value="Thông tin yêu cầu" style="text;html=1;align=center;verticalAlign=middle;resizable=0;points=[];autosize=1;strokeColor=none;fillColor=none;" parent="1" vertex="1">
          <mxGeometry x="508.96000000000004" y="1085" width="120" height="30" as="geometry" />
        </mxCell>
        <mxCell id="aAyam5rV_4I70285Srx0-52" value="" style="endArrow=classic;html=1;rounded=0;exitX=-0.013;exitY=0.707;exitDx=0;exitDy=0;exitPerimeter=0;" parent="1" edge="1">
          <mxGeometry width="50" height="50" relative="1" as="geometry">
            <mxPoint x="638" y="1128.5" as="sourcePoint" />
            <mxPoint x="485" y="1127.5" as="targetPoint" />
          </mxGeometry>
        </mxCell>
        <mxCell id="aAyam5rV_4I70285Srx0-53" value="Báo cáo" style="text;html=1;align=center;verticalAlign=middle;resizable=0;points=[];autosize=1;strokeColor=none;fillColor=none;" parent="1" vertex="1">
          <mxGeometry x="520" y="1128" width="70" height="30" as="geometry" />
        </mxCell>
        <mxCell id="aAyam5rV_4I70285Srx0-54" value="&lt;span style=&quot;font-size: 15px;&quot;&gt;1.1&lt;/span&gt;" style="swimlane;childLayout=stackLayout;horizontal=1;startSize=40;horizontalStack=0;rounded=1;fontSize=14;fontStyle=0;strokeWidth=2;resizeParent=0;resizeLast=1;shadow=0;dashed=0;align=center;arcSize=4;whiteSpace=wrap;html=1;" parent="1" vertex="1">
          <mxGeometry x="355" y="1490" width="160" height="120" as="geometry" />
        </mxCell>
        <mxCell id="aAyam5rV_4I70285Srx0-55" value="&lt;font style=&quot;font-size: 15px;&quot;&gt;Quản lý &lt;br&gt;tài khoản&lt;br&gt;&lt;/font&gt;" style="align=center;strokeColor=none;fillColor=none;spacingLeft=4;fontSize=12;verticalAlign=top;resizable=0;rotatable=0;part=1;html=1;" parent="aAyam5rV_4I70285Srx0-54" vertex="1">
          <mxGeometry y="40" width="160" height="80" as="geometry" />
        </mxCell>
        <mxCell id="aAyam5rV_4I70285Srx0-57" value="&lt;span style=&quot;font-size: 15px;&quot;&gt;Người dùng&lt;/span&gt;" style="whiteSpace=wrap;html=1;align=center;" parent="1" vertex="1">
          <mxGeometry x="40" y="1520" width="100" height="70" as="geometry" />
        </mxCell>
        <mxCell id="aAyam5rV_4I70285Srx0-62" value="" style="endArrow=classic;html=1;rounded=0;exitX=1;exitY=0.25;exitDx=0;exitDy=0;entryX=0.006;entryY=0.138;entryDx=0;entryDy=0;entryPerimeter=0;" parent="1" edge="1">
          <mxGeometry width="50" height="50" relative="1" as="geometry">
            <mxPoint x="139.99999999999997" y="1545" as="sourcePoint" />
            <mxPoint x="350.9600000000001" y="1546.04" as="targetPoint" />
          </mxGeometry>
        </mxCell>
        <mxCell id="aAyam5rV_4I70285Srx0-63" value="Thông tin đăng nhập" style="text;html=1;align=center;verticalAlign=middle;resizable=0;points=[];autosize=1;strokeColor=none;fillColor=none;" parent="1" vertex="1">
          <mxGeometry x="164.99999999999997" y="1520" width="130" height="30" as="geometry" />
        </mxCell>
        <mxCell id="aAyam5rV_4I70285Srx0-64" value="" style="endArrow=classic;html=1;rounded=0;entryX=1;entryY=0.5;entryDx=0;entryDy=0;exitX=0.013;exitY=0.35;exitDx=0;exitDy=0;exitPerimeter=0;" parent="1" edge="1">
          <mxGeometry width="50" height="50" relative="1" as="geometry">
            <mxPoint x="352.08" y="1563" as="sourcePoint" />
            <mxPoint x="139.99999999999997" y="1562" as="targetPoint" />
          </mxGeometry>
        </mxCell>
        <mxCell id="aAyam5rV_4I70285Srx0-65" value="Thông báo đăng nhập" style="text;html=1;align=center;verticalAlign=middle;resizable=0;points=[];autosize=1;strokeColor=none;fillColor=none;" parent="1" vertex="1">
          <mxGeometry x="164.99999999999997" y="1560" width="140" height="30" as="geometry" />
        </mxCell>
        <mxCell id="aAyam5rV_4I70285Srx0-66" value="" style="endArrow=classic;html=1;rounded=0;exitX=0.75;exitY=0;exitDx=0;exitDy=0;entryX=0.25;entryY=0;entryDx=0;entryDy=0;" parent="1" edge="1">
          <mxGeometry width="50" height="50" relative="1" as="geometry">
            <mxPoint x="109.5" y="1515" as="sourcePoint" />
            <mxPoint x="394.5" y="1490" as="targetPoint" />
            <Array as="points">
              <mxPoint x="109.5" y="1460" />
              <mxPoint x="394.5" y="1460" />
            </Array>
          </mxGeometry>
        </mxCell>
        <mxCell id="aAyam5rV_4I70285Srx0-67" value="" style="endArrow=classic;html=1;rounded=0;exitX=0.399;exitY=-0.016;exitDx=0;exitDy=0;entryX=0.5;entryY=0;entryDx=0;entryDy=0;exitPerimeter=0;" parent="1" edge="1">
          <mxGeometry width="50" height="50" relative="1" as="geometry">
            <mxPoint x="414" y="1488" as="sourcePoint" />
            <mxPoint x="80" y="1515" as="targetPoint" />
            <Array as="points">
              <mxPoint x="414" y="1450" />
              <mxPoint x="80" y="1450" />
            </Array>
          </mxGeometry>
        </mxCell>
        <mxCell id="aAyam5rV_4I70285Srx0-68" value="Mật khẩu thay đổi" style="text;html=1;align=center;verticalAlign=middle;resizable=0;points=[];autosize=1;strokeColor=none;fillColor=none;" parent="1" vertex="1">
          <mxGeometry x="167" y="1460" width="120" height="30" as="geometry" />
        </mxCell>
        <mxCell id="aAyam5rV_4I70285Srx0-69" value="Thông báo đổi mật khẩu thành công" style="text;html=1;align=center;verticalAlign=middle;resizable=0;points=[];autosize=1;strokeColor=none;fillColor=none;" parent="1" vertex="1">
          <mxGeometry x="123.96000000000001" y="1420" width="220" height="30" as="geometry" />
        </mxCell>
        <mxCell id="aAyam5rV_4I70285Srx0-70" value="&lt;span style=&quot;font-size: 15px;&quot;&gt;Quản trị viên&lt;/span&gt;" style="whiteSpace=wrap;html=1;align=center;" parent="1" vertex="1">
          <mxGeometry x="690" y="1515" width="100" height="70" as="geometry" />
        </mxCell>
        <mxCell id="aAyam5rV_4I70285Srx0-71" value="" style="endArrow=classic;html=1;rounded=0;exitX=1;exitY=0.25;exitDx=0;exitDy=0;" parent="1" edge="1">
          <mxGeometry width="50" height="50" relative="1" as="geometry">
            <mxPoint x="515" y="1545" as="sourcePoint" />
            <mxPoint x="690" y="1546" as="targetPoint" />
          </mxGeometry>
        </mxCell>
        <mxCell id="aAyam5rV_4I70285Srx0-72" value="Thông tin đăng nhập" style="text;html=1;align=center;verticalAlign=middle;resizable=0;points=[];autosize=1;strokeColor=none;fillColor=none;" parent="1" vertex="1">
          <mxGeometry x="540" y="1520" width="130" height="30" as="geometry" />
        </mxCell>
        <mxCell id="aAyam5rV_4I70285Srx0-73" value="" style="endArrow=classic;html=1;rounded=0;entryX=1;entryY=0.5;entryDx=0;entryDy=0;exitX=-0.01;exitY=0.671;exitDx=0;exitDy=0;exitPerimeter=0;" parent="1" source="aAyam5rV_4I70285Srx0-70" edge="1">
          <mxGeometry width="50" height="50" relative="1" as="geometry">
            <mxPoint x="690" y="1560" as="sourcePoint" />
            <mxPoint x="515" y="1562" as="targetPoint" />
          </mxGeometry>
        </mxCell>
        <mxCell id="aAyam5rV_4I70285Srx0-74" value="Thông báo đăng nhập" style="text;html=1;align=center;verticalAlign=middle;resizable=0;points=[];autosize=1;strokeColor=none;fillColor=none;" parent="1" vertex="1">
          <mxGeometry x="540" y="1560" width="140" height="30" as="geometry" />
        </mxCell>
        <mxCell id="aAyam5rV_4I70285Srx0-75" value="" style="endArrow=classic;html=1;rounded=0;exitX=0.75;exitY=0;exitDx=0;exitDy=0;entryX=0.25;entryY=0;entryDx=0;entryDy=0;" parent="1" target="aAyam5rV_4I70285Srx0-70" edge="1">
          <mxGeometry width="50" height="50" relative="1" as="geometry">
            <mxPoint x="485.5" y="1490" as="sourcePoint" />
            <mxPoint x="770.5" y="1465" as="targetPoint" />
            <Array as="points">
              <mxPoint x="485.5" y="1435" />
              <mxPoint x="715" y="1435" />
            </Array>
          </mxGeometry>
        </mxCell>
        <mxCell id="aAyam5rV_4I70285Srx0-76" value="" style="endArrow=classic;html=1;rounded=0;entryX=0.5;entryY=0;entryDx=0;entryDy=0;" parent="1" edge="1">
          <mxGeometry width="50" height="50" relative="1" as="geometry">
            <mxPoint x="740" y="1510" as="sourcePoint" />
            <mxPoint x="456" y="1490" as="targetPoint" />
            <Array as="points">
              <mxPoint x="740" y="1425" />
              <mxPoint x="456" y="1425" />
            </Array>
          </mxGeometry>
        </mxCell>
        <mxCell id="aAyam5rV_4I70285Srx0-77" value="Thông báo thành công" style="text;html=1;align=center;verticalAlign=middle;resizable=0;points=[];autosize=1;strokeColor=none;fillColor=none;" parent="1" vertex="1">
          <mxGeometry x="533" y="1435" width="140" height="30" as="geometry" />
        </mxCell>
        <mxCell id="aAyam5rV_4I70285Srx0-78" value="Thông tin thêm mới tài khoản quản trị" style="text;html=1;align=center;verticalAlign=middle;resizable=0;points=[];autosize=1;strokeColor=none;fillColor=none;" parent="1" vertex="1">
          <mxGeometry x="485.00000000000006" y="1400" width="220" height="30" as="geometry" />
        </mxCell>
        <mxCell id="aAyam5rV_4I70285Srx0-80" value="" style="endArrow=classic;html=1;rounded=0;entryX=0.806;entryY=1.05;entryDx=0;entryDy=0;exitX=0.19;exitY=1.014;exitDx=0;exitDy=0;exitPerimeter=0;entryPerimeter=0;" parent="1" source="aAyam5rV_4I70285Srx0-70" target="aAyam5rV_4I70285Srx0-55" edge="1">
          <mxGeometry width="50" height="50" relative="1" as="geometry">
            <mxPoint x="704" y="1680" as="sourcePoint" />
            <mxPoint x="530" y="1680" as="targetPoint" />
            <Array as="points">
              <mxPoint x="709" y="1650" />
              <mxPoint x="484" y="1650" />
            </Array>
          </mxGeometry>
        </mxCell>
        <mxCell id="aAyam5rV_4I70285Srx0-81" value="Mật khẩu thay đổi" style="text;html=1;align=center;verticalAlign=middle;resizable=0;points=[];autosize=1;strokeColor=none;fillColor=none;" parent="1" vertex="1">
          <mxGeometry x="530" y="1618" width="120" height="30" as="geometry" />
        </mxCell>
        <mxCell id="aAyam5rV_4I70285Srx0-82" value="" style="endArrow=classic;html=1;rounded=0;exitX=0.594;exitY=1.063;exitDx=0;exitDy=0;entryX=0.39;entryY=1.043;entryDx=0;entryDy=0;exitPerimeter=0;entryPerimeter=0;" parent="1" source="aAyam5rV_4I70285Srx0-55" target="aAyam5rV_4I70285Srx0-70" edge="1">
          <mxGeometry width="50" height="50" relative="1" as="geometry">
            <mxPoint x="502.5" y="1670" as="sourcePoint" />
            <mxPoint x="677.5" y="1671" as="targetPoint" />
            <Array as="points">
              <mxPoint x="450" y="1670" />
              <mxPoint x="729" y="1670" />
            </Array>
          </mxGeometry>
        </mxCell>
        <mxCell id="aAyam5rV_4I70285Srx0-83" value="Thông báo đổi mật khẩu thành công" style="text;html=1;align=center;verticalAlign=middle;resizable=0;points=[];autosize=1;strokeColor=none;fillColor=none;" parent="1" vertex="1">
          <mxGeometry x="500" y="1670" width="220" height="30" as="geometry" />
        </mxCell>
        <mxCell id="aAyam5rV_4I70285Srx0-84" value="" style="html=1;dashed=0;whiteSpace=wrap;shape=mxgraph.dfd.dataStoreID;align=left;spacingLeft=3;points=[[0,0],[0.5,0],[1,0],[0,0.5],[1,0.5],[0,1],[0.5,1],[1,1]];rotation=-180;" parent="1" vertex="1">
          <mxGeometry x="123.96" y="1648" width="116.04" height="41" as="geometry" />
        </mxCell>
        <mxCell id="aAyam5rV_4I70285Srx0-85" value="Tài khoản" style="text;html=1;align=center;verticalAlign=middle;resizable=0;points=[];autosize=1;strokeColor=none;fillColor=none;fontSize=13;" parent="1" vertex="1">
          <mxGeometry x="125" y="1653.5" width="80" height="30" as="geometry" />
        </mxCell>
        <mxCell id="aAyam5rV_4I70285Srx0-86" value="" style="endArrow=classic;html=1;rounded=0;entryX=-0.012;entryY=0.212;entryDx=0;entryDy=0;exitX=0.388;exitY=1.013;exitDx=0;exitDy=0;exitPerimeter=0;entryPerimeter=0;" parent="1" source="aAyam5rV_4I70285Srx0-55" target="aAyam5rV_4I70285Srx0-84" edge="1">
          <mxGeometry width="50" height="50" relative="1" as="geometry">
            <mxPoint x="362.08" y="1573" as="sourcePoint" />
            <mxPoint x="149.99999999999997" y="1572" as="targetPoint" />
            <Array as="points">
              <mxPoint x="417" y="1680" />
            </Array>
          </mxGeometry>
        </mxCell>
        <mxCell id="aAyam5rV_4I70285Srx0-87" value="Thông tin tìm kiếm" style="text;html=1;align=center;verticalAlign=middle;resizable=0;points=[];autosize=1;strokeColor=none;fillColor=none;" parent="1" vertex="1">
          <mxGeometry x="265" y="1680" width="120" height="30" as="geometry" />
        </mxCell>
        <mxCell id="aAyam5rV_4I70285Srx0-88" value="" style="endArrow=classic;html=1;rounded=0;entryX=0.25;entryY=1;entryDx=0;entryDy=0;" parent="1" target="aAyam5rV_4I70285Srx0-55" edge="1">
          <mxGeometry width="50" height="50" relative="1" as="geometry">
            <mxPoint x="240" y="1660" as="sourcePoint" />
            <mxPoint x="390.9600000000001" y="1631.04" as="targetPoint" />
            <Array as="points">
              <mxPoint x="395" y="1660" />
            </Array>
          </mxGeometry>
        </mxCell>
        <mxCell id="aAyam5rV_4I70285Srx0-89" value="Thông tin tài khoản" style="text;html=1;align=center;verticalAlign=middle;resizable=0;points=[];autosize=1;strokeColor=none;fillColor=none;" parent="1" vertex="1">
          <mxGeometry x="245" y="1638" width="130" height="30" as="geometry" />
        </mxCell>
        <mxCell id="aAyam5rV_4I70285Srx0-90" value="&lt;span style=&quot;font-size: 15px;&quot;&gt;1.2&lt;/span&gt;" style="swimlane;childLayout=stackLayout;horizontal=1;startSize=40;horizontalStack=0;rounded=1;fontSize=14;fontStyle=0;strokeWidth=2;resizeParent=0;resizeLast=1;shadow=0;dashed=0;align=center;arcSize=4;whiteSpace=wrap;html=1;" parent="1" vertex="1">
          <mxGeometry x="345" y="1780" width="160" height="120" as="geometry" />
        </mxCell>
        <mxCell id="aAyam5rV_4I70285Srx0-91" value="&lt;font style=&quot;font-size: 15px;&quot;&gt;Quản lý &lt;br&gt;thông tin cá nhân&lt;br&gt;&lt;/font&gt;" style="align=center;strokeColor=none;fillColor=none;spacingLeft=4;fontSize=12;verticalAlign=top;resizable=0;rotatable=0;part=1;html=1;" parent="aAyam5rV_4I70285Srx0-90" vertex="1">
          <mxGeometry y="40" width="160" height="80" as="geometry" />
        </mxCell>
        <mxCell id="aAyam5rV_4I70285Srx0-92" value="" style="endArrow=classic;html=1;rounded=0;exitX=0.5;exitY=1;exitDx=0;exitDy=0;entryX=0;entryY=0.25;entryDx=0;entryDy=0;" parent="1" source="aAyam5rV_4I70285Srx0-57" target="aAyam5rV_4I70285Srx0-90" edge="1">
          <mxGeometry width="50" height="50" relative="1" as="geometry">
            <mxPoint x="134.99999999999997" y="1830" as="sourcePoint" />
            <mxPoint x="345.9600000000001" y="1831.04" as="targetPoint" />
            <Array as="points">
              <mxPoint x="90" y="1810" />
            </Array>
          </mxGeometry>
        </mxCell>
        <mxCell id="aAyam5rV_4I70285Srx0-93" value="" style="endArrow=classic;html=1;rounded=0;entryX=0.25;entryY=1;entryDx=0;entryDy=0;exitX=0;exitY=0.25;exitDx=0;exitDy=0;" parent="1" source="aAyam5rV_4I70285Srx0-91" target="aAyam5rV_4I70285Srx0-57" edge="1">
          <mxGeometry width="50" height="50" relative="1" as="geometry">
            <mxPoint x="343.96" y="1861" as="sourcePoint" />
            <mxPoint x="131.87999999999997" y="1860" as="targetPoint" />
            <Array as="points">
              <mxPoint x="65" y="1840" />
            </Array>
          </mxGeometry>
        </mxCell>
        <mxCell id="aAyam5rV_4I70285Srx0-94" value="Thông tin cập nhật" style="text;html=1;align=center;verticalAlign=middle;resizable=0;points=[];autosize=1;strokeColor=none;fillColor=none;" parent="1" vertex="1">
          <mxGeometry x="155" y="1780" width="120" height="30" as="geometry" />
        </mxCell>
        <mxCell id="aAyam5rV_4I70285Srx0-95" value="Thông báo cập nhật thành công" style="text;html=1;align=center;verticalAlign=middle;resizable=0;points=[];autosize=1;strokeColor=none;fillColor=none;" parent="1" vertex="1">
          <mxGeometry x="105.00000000000001" y="1810" width="190" height="30" as="geometry" />
        </mxCell>
        <mxCell id="aAyam5rV_4I70285Srx0-96" value="" style="endArrow=classic;html=1;rounded=0;exitX=0.5;exitY=1;exitDx=0;exitDy=0;entryX=1;entryY=0.25;entryDx=0;entryDy=0;" parent="1" target="aAyam5rV_4I70285Srx0-91" edge="1">
          <mxGeometry width="50" height="50" relative="1" as="geometry">
            <mxPoint x="749.04" y="1585" as="sourcePoint" />
            <mxPoint x="560" y="1825" as="targetPoint" />
            <Array as="points">
              <mxPoint x="749" y="1840" />
            </Array>
          </mxGeometry>
        </mxCell>
        <mxCell id="aAyam5rV_4I70285Srx0-97" value="" style="endArrow=classic;html=1;rounded=0;entryX=0.25;entryY=1;entryDx=0;entryDy=0;" parent="1" edge="1">
          <mxGeometry width="50" height="50" relative="1" as="geometry">
            <mxPoint x="510" y="1855" as="sourcePoint" />
            <mxPoint x="767.5" y="1585" as="targetPoint" />
            <Array as="points">
              <mxPoint x="767.5" y="1855" />
            </Array>
          </mxGeometry>
        </mxCell>
        <mxCell id="aAyam5rV_4I70285Srx0-98" value="Thông tin cập nhật" style="text;html=1;align=center;verticalAlign=middle;resizable=0;points=[];autosize=1;strokeColor=none;fillColor=none;" parent="1" vertex="1">
          <mxGeometry x="570" y="1810" width="120" height="30" as="geometry" />
        </mxCell>
        <mxCell id="aAyam5rV_4I70285Srx0-99" value="Thông báo cập nhật thành công" style="text;html=1;align=center;verticalAlign=middle;resizable=0;points=[];autosize=1;strokeColor=none;fillColor=none;" parent="1" vertex="1">
          <mxGeometry x="530" y="1850" width="190" height="30" as="geometry" />
        </mxCell>
        <mxCell id="aAyam5rV_4I70285Srx0-102" value="" style="html=1;dashed=0;whiteSpace=wrap;shape=mxgraph.dfd.dataStoreID;align=left;spacingLeft=3;points=[[0,0],[0.5,0],[1,0],[0,0.5],[1,0.5],[0,1],[0.5,1],[1,1]];rotation=-180;" parent="1" vertex="1">
          <mxGeometry x="53" y="1928" width="166.52" height="41" as="geometry" />
        </mxCell>
        <mxCell id="aAyam5rV_4I70285Srx0-103" value="Dữ liệu người dùng" style="text;html=1;align=center;verticalAlign=middle;resizable=0;points=[];autosize=1;strokeColor=none;fillColor=none;fontSize=13;" parent="1" vertex="1">
          <mxGeometry x="50.000000000000014" y="1933.5" width="140" height="30" as="geometry" />
        </mxCell>
        <mxCell id="aAyam5rV_4I70285Srx0-104" value="" style="endArrow=classic;html=1;rounded=0;entryX=-0.012;entryY=0.212;entryDx=0;entryDy=0;exitX=0.388;exitY=1.013;exitDx=0;exitDy=0;exitPerimeter=0;entryPerimeter=0;" parent="1" target="aAyam5rV_4I70285Srx0-102" edge="1">
          <mxGeometry width="50" height="50" relative="1" as="geometry">
            <mxPoint x="391.52" y="1901" as="sourcePoint" />
            <mxPoint x="124.51999999999998" y="1862" as="targetPoint" />
            <Array as="points">
              <mxPoint x="392" y="1960" />
            </Array>
          </mxGeometry>
        </mxCell>
        <mxCell id="aAyam5rV_4I70285Srx0-105" value="" style="endArrow=classic;html=1;rounded=0;entryX=0;entryY=0.5;entryDx=0;entryDy=0;exitX=0.387;exitY=0.951;exitDx=0;exitDy=0;exitPerimeter=0;" parent="1" source="aAyam5rV_4I70285Srx0-102" target="aAyam5rV_4I70285Srx0-91" edge="1">
          <mxGeometry width="50" height="50" relative="1" as="geometry">
            <mxPoint x="214.52" y="1950" as="sourcePoint" />
            <mxPoint x="369.52" y="1900" as="targetPoint" />
            <Array as="points">
              <mxPoint x="156" y="1860" />
            </Array>
          </mxGeometry>
        </mxCell>
        <mxCell id="aAyam5rV_4I70285Srx0-106" value="Thông tin tìm kiếm, cập nhật" style="text;html=1;align=center;verticalAlign=middle;resizable=0;points=[];autosize=1;strokeColor=none;fillColor=none;" parent="1" vertex="1">
          <mxGeometry x="220" y="1933.5" width="170" height="30" as="geometry" />
        </mxCell>
        <mxCell id="aAyam5rV_4I70285Srx0-107" value="Thông tin người dùng" style="text;html=1;align=center;verticalAlign=middle;resizable=0;points=[];autosize=1;strokeColor=none;fillColor=none;" parent="1" vertex="1">
          <mxGeometry x="165" y="1858" width="140" height="30" as="geometry" />
        </mxCell>
      </root>
    </mxGraphModel>
  </diagram>
  <diagram id="VfN6dkwbpIQo931ar_hO" name="Trang-2">
    <mxGraphModel dx="1120" dy="-1886" grid="1" gridSize="10" guides="1" tooltips="1" connect="1" arrows="1" fold="1" page="1" pageScale="1" pageWidth="827" pageHeight="1169" math="0" shadow="0">
      <root>
        <mxCell id="0" />
        <mxCell id="1" parent="0" />
        <mxCell id="Jb7FelstHb2xow8OYDtu-1" value="&lt;span style=&quot;font-size: 15px;&quot;&gt;2.1&lt;/span&gt;" style="swimlane;childLayout=stackLayout;horizontal=1;startSize=40;horizontalStack=0;rounded=1;fontSize=14;fontStyle=0;strokeWidth=2;resizeParent=0;resizeLast=1;shadow=0;dashed=0;align=center;arcSize=4;whiteSpace=wrap;html=1;" parent="1" vertex="1">
          <mxGeometry x="345" y="2490" width="160" height="120" as="geometry" />
        </mxCell>
        <mxCell id="Jb7FelstHb2xow8OYDtu-2" value="&lt;font style=&quot;font-size: 15px;&quot;&gt;Đăng tin &lt;br&gt;tuyển dụng&lt;br&gt;&lt;/font&gt;" style="align=center;strokeColor=none;fillColor=none;spacingLeft=4;fontSize=12;verticalAlign=top;resizable=0;rotatable=0;part=1;html=1;" parent="Jb7FelstHb2xow8OYDtu-1" vertex="1">
          <mxGeometry y="40" width="160" height="80" as="geometry" />
        </mxCell>
        <mxCell id="Jb7FelstHb2xow8OYDtu-3" value="&lt;span style=&quot;font-size: 15px;&quot;&gt;Nhà tuyển dụng&lt;/span&gt;" style="whiteSpace=wrap;html=1;align=center;" parent="1" vertex="1">
          <mxGeometry x="30" y="2520" width="100" height="70" as="geometry" />
        </mxCell>
        <mxCell id="Jb7FelstHb2xow8OYDtu-4" value="" style="endArrow=classic;html=1;rounded=0;exitX=1;exitY=0.25;exitDx=0;exitDy=0;entryX=0.006;entryY=0.138;entryDx=0;entryDy=0;entryPerimeter=0;" parent="1" edge="1">
          <mxGeometry width="50" height="50" relative="1" as="geometry">
            <mxPoint x="129.99999999999997" y="2545" as="sourcePoint" />
            <mxPoint x="340.9600000000001" y="2546.04" as="targetPoint" />
          </mxGeometry>
        </mxCell>
        <mxCell id="Jb7FelstHb2xow8OYDtu-5" value="Thông tin tìm kiếm" style="text;html=1;align=center;verticalAlign=middle;resizable=0;points=[];autosize=1;strokeColor=none;fillColor=none;" parent="1" vertex="1">
          <mxGeometry x="159.99999999999997" y="2520" width="120" height="30" as="geometry" />
        </mxCell>
        <mxCell id="Jb7FelstHb2xow8OYDtu-6" value="" style="endArrow=classic;html=1;rounded=0;entryX=1;entryY=0.5;entryDx=0;entryDy=0;exitX=0.013;exitY=0.35;exitDx=0;exitDy=0;exitPerimeter=0;" parent="1" edge="1">
          <mxGeometry width="50" height="50" relative="1" as="geometry">
            <mxPoint x="342.08" y="2563" as="sourcePoint" />
            <mxPoint x="129.99999999999997" y="2562" as="targetPoint" />
          </mxGeometry>
        </mxCell>
        <mxCell id="Jb7FelstHb2xow8OYDtu-7" value="Bài viết đã đăng" style="text;html=1;align=center;verticalAlign=middle;resizable=0;points=[];autosize=1;strokeColor=none;fillColor=none;" parent="1" vertex="1">
          <mxGeometry x="169.99999999999997" y="2560" width="110" height="30" as="geometry" />
        </mxCell>
        <mxCell id="Jb7FelstHb2xow8OYDtu-8" value="" style="endArrow=classic;html=1;rounded=0;exitX=0.75;exitY=0;exitDx=0;exitDy=0;entryX=0.25;entryY=0;entryDx=0;entryDy=0;" parent="1" edge="1">
          <mxGeometry width="50" height="50" relative="1" as="geometry">
            <mxPoint x="99.5" y="2515" as="sourcePoint" />
            <mxPoint x="384.5" y="2490" as="targetPoint" />
            <Array as="points">
              <mxPoint x="99.5" y="2460" />
              <mxPoint x="384.5" y="2460" />
            </Array>
          </mxGeometry>
        </mxCell>
        <mxCell id="Jb7FelstHb2xow8OYDtu-9" value="" style="endArrow=classic;html=1;rounded=0;exitX=0.399;exitY=-0.016;exitDx=0;exitDy=0;entryX=0.5;entryY=0;entryDx=0;entryDy=0;exitPerimeter=0;" parent="1" edge="1">
          <mxGeometry width="50" height="50" relative="1" as="geometry">
            <mxPoint x="404" y="2488" as="sourcePoint" />
            <mxPoint x="70" y="2515" as="targetPoint" />
            <Array as="points">
              <mxPoint x="404" y="2450" />
              <mxPoint x="70" y="2450" />
            </Array>
          </mxGeometry>
        </mxCell>
        <mxCell id="Jb7FelstHb2xow8OYDtu-10" value="Thông tin tuyển dụng&amp;nbsp;" style="text;html=1;align=center;verticalAlign=middle;resizable=0;points=[];autosize=1;strokeColor=none;fillColor=none;" parent="1" vertex="1">
          <mxGeometry x="147" y="2460" width="140" height="30" as="geometry" />
        </mxCell>
        <mxCell id="Jb7FelstHb2xow8OYDtu-11" value="Thông báo tạo bài viết thành công" style="text;html=1;align=center;verticalAlign=middle;resizable=0;points=[];autosize=1;strokeColor=none;fillColor=none;" parent="1" vertex="1">
          <mxGeometry x="123.96000000000001" y="2420" width="200" height="30" as="geometry" />
        </mxCell>
        <mxCell id="Jb7FelstHb2xow8OYDtu-31" value="&lt;span style=&quot;font-size: 15px;&quot;&gt;2.2&lt;/span&gt;" style="swimlane;childLayout=stackLayout;horizontal=1;startSize=40;horizontalStack=0;rounded=1;fontSize=14;fontStyle=0;strokeWidth=2;resizeParent=0;resizeLast=1;shadow=0;dashed=0;align=center;arcSize=4;whiteSpace=wrap;html=1;" parent="1" vertex="1">
          <mxGeometry x="345" y="2710" width="160" height="120" as="geometry" />
        </mxCell>
        <mxCell id="Jb7FelstHb2xow8OYDtu-32" value="&lt;font style=&quot;font-size: 15px;&quot;&gt;Cập nhật&lt;br&gt;&amp;nbsp;bài đăng&lt;br&gt;&lt;/font&gt;" style="align=center;strokeColor=none;fillColor=none;spacingLeft=4;fontSize=12;verticalAlign=top;resizable=0;rotatable=0;part=1;html=1;" parent="Jb7FelstHb2xow8OYDtu-31" vertex="1">
          <mxGeometry y="40" width="160" height="80" as="geometry" />
        </mxCell>
        <mxCell id="Jb7FelstHb2xow8OYDtu-33" value="" style="endArrow=classic;html=1;rounded=0;exitX=0.5;exitY=1;exitDx=0;exitDy=0;entryX=0;entryY=0.25;entryDx=0;entryDy=0;" parent="1" source="Jb7FelstHb2xow8OYDtu-3" target="Jb7FelstHb2xow8OYDtu-32" edge="1">
          <mxGeometry width="50" height="50" relative="1" as="geometry">
            <mxPoint x="124.99999999999997" y="2830" as="sourcePoint" />
            <mxPoint x="335.9600000000001" y="2831.04" as="targetPoint" />
            <Array as="points">
              <mxPoint x="80" y="2770" />
            </Array>
          </mxGeometry>
        </mxCell>
        <mxCell id="Jb7FelstHb2xow8OYDtu-34" value="" style="endArrow=classic;html=1;rounded=0;exitX=0.007;exitY=0.669;exitDx=0;exitDy=0;exitPerimeter=0;" parent="1" source="Jb7FelstHb2xow8OYDtu-32" edge="1">
          <mxGeometry width="50" height="50" relative="1" as="geometry">
            <mxPoint x="333.96" y="2861" as="sourcePoint" />
            <mxPoint x="60" y="2590" as="targetPoint" />
            <Array as="points">
              <mxPoint x="60" y="2804" />
            </Array>
          </mxGeometry>
        </mxCell>
        <mxCell id="Jb7FelstHb2xow8OYDtu-35" value="Thông tin cập nhật" style="text;html=1;align=center;verticalAlign=middle;resizable=0;points=[];autosize=1;strokeColor=none;fillColor=none;" parent="1" vertex="1">
          <mxGeometry x="132" y="2750" width="120" height="30" as="geometry" />
        </mxCell>
        <mxCell id="Jb7FelstHb2xow8OYDtu-36" value="Thông báo cập nhật thành công" style="text;html=1;align=center;verticalAlign=middle;resizable=0;points=[];autosize=1;strokeColor=none;fillColor=none;" parent="1" vertex="1">
          <mxGeometry x="97.00000000000001" y="2800" width="190" height="30" as="geometry" />
        </mxCell>
        <mxCell id="Jb7FelstHb2xow8OYDtu-48" value="&lt;span style=&quot;white-space: pre;&quot;&gt;&lt;span style=&quot;white-space: pre;&quot;&gt; &lt;/span&gt; &lt;/span&gt;&amp;nbsp;Dữ liệu bài viết" style="html=1;dashed=0;whiteSpace=wrap;shape=mxgraph.dfd.dataStoreID;align=left;spacingLeft=3;points=[[0,0],[0.5,0],[1,0],[0,0.5],[1,0.5],[0,1],[0.5,1],[1,1]];rotation=0;" parent="1" vertex="1">
          <mxGeometry x="620" y="2530" width="157.92" height="50" as="geometry" />
        </mxCell>
        <mxCell id="Jb7FelstHb2xow8OYDtu-49" value="" style="endArrow=classic;html=1;rounded=0;exitX=1;exitY=0.25;exitDx=0;exitDy=0;entryX=0.007;entryY=0.371;entryDx=0;entryDy=0;entryPerimeter=0;" parent="1" target="Jb7FelstHb2xow8OYDtu-48" edge="1">
          <mxGeometry width="50" height="50" relative="1" as="geometry">
            <mxPoint x="505" y="2548.96" as="sourcePoint" />
            <mxPoint x="715.96" y="2550" as="targetPoint" />
          </mxGeometry>
        </mxCell>
        <mxCell id="Jb7FelstHb2xow8OYDtu-50" value="" style="endArrow=classic;html=1;rounded=0;exitX=0.013;exitY=0.35;exitDx=0;exitDy=0;exitPerimeter=0;entryX=1.002;entryY=0.407;entryDx=0;entryDy=0;entryPerimeter=0;" parent="1" target="Jb7FelstHb2xow8OYDtu-2" edge="1">
          <mxGeometry width="50" height="50" relative="1" as="geometry">
            <mxPoint x="620" y="2561" as="sourcePoint" />
            <mxPoint x="510" y="2560" as="targetPoint" />
          </mxGeometry>
        </mxCell>
        <mxCell id="Jb7FelstHb2xow8OYDtu-51" value="Bài viết" style="text;html=1;align=center;verticalAlign=middle;resizable=0;points=[];autosize=1;strokeColor=none;fillColor=none;" parent="1" vertex="1">
          <mxGeometry x="530" y="2520" width="60" height="30" as="geometry" />
        </mxCell>
        <mxCell id="Jb7FelstHb2xow8OYDtu-52" value="Tạo thành công" style="text;html=1;align=center;verticalAlign=middle;resizable=0;points=[];autosize=1;strokeColor=none;fillColor=none;" parent="1" vertex="1">
          <mxGeometry x="510" y="2560" width="110" height="30" as="geometry" />
        </mxCell>
        <mxCell id="Jb7FelstHb2xow8OYDtu-54" value="" style="endArrow=classic;html=1;rounded=0;exitX=0.846;exitY=0.001;exitDx=0;exitDy=0;entryX=0.278;entryY=-0.052;entryDx=0;entryDy=0;entryPerimeter=0;exitPerimeter=0;" parent="1" source="Jb7FelstHb2xow8OYDtu-1" target="Jb7FelstHb2xow8OYDtu-48" edge="1">
          <mxGeometry width="50" height="50" relative="1" as="geometry">
            <mxPoint x="380" y="2550" as="sourcePoint" />
            <mxPoint x="665" y="2525" as="targetPoint" />
            <Array as="points">
              <mxPoint x="480" y="2480" />
              <mxPoint x="664" y="2480" />
            </Array>
          </mxGeometry>
        </mxCell>
        <mxCell id="Jb7FelstHb2xow8OYDtu-55" value="Thông tin tìm kiếm" style="text;html=1;align=center;verticalAlign=middle;resizable=0;points=[];autosize=1;strokeColor=none;fillColor=none;" parent="1" vertex="1">
          <mxGeometry x="510" y="2480" width="120" height="30" as="geometry" />
        </mxCell>
        <mxCell id="Jb7FelstHb2xow8OYDtu-56" value="" style="endArrow=classic;html=1;rounded=0;entryX=0.683;entryY=0.001;entryDx=0;entryDy=0;exitX=0.5;exitY=0;exitDx=0;exitDy=0;entryPerimeter=0;" parent="1" source="Jb7FelstHb2xow8OYDtu-48" target="Jb7FelstHb2xow8OYDtu-1" edge="1">
          <mxGeometry width="50" height="50" relative="1" as="geometry">
            <mxPoint x="352.08" y="2573" as="sourcePoint" />
            <mxPoint x="139.99999999999997" y="2572" as="targetPoint" />
            <Array as="points">
              <mxPoint x="699" y="2460" />
              <mxPoint x="454" y="2460" />
            </Array>
          </mxGeometry>
        </mxCell>
        <mxCell id="Jb7FelstHb2xow8OYDtu-57" value="Thông tin bài viết" style="text;html=1;align=center;verticalAlign=middle;resizable=0;points=[];autosize=1;strokeColor=none;fillColor=none;" parent="1" vertex="1">
          <mxGeometry x="515" y="2440" width="110" height="30" as="geometry" />
        </mxCell>
        <mxCell id="Jb7FelstHb2xow8OYDtu-59" value="" style="endArrow=classic;html=1;rounded=0;exitX=1;exitY=0.25;exitDx=0;exitDy=0;entryX=0.129;entryY=1.07;entryDx=0;entryDy=0;entryPerimeter=0;" parent="1" target="Jb7FelstHb2xow8OYDtu-48" edge="1">
          <mxGeometry width="50" height="50" relative="1" as="geometry">
            <mxPoint x="505" y="2764.48" as="sourcePoint" />
            <mxPoint x="715.96" y="2765.52" as="targetPoint" />
            <Array as="points">
              <mxPoint x="640" y="2764" />
            </Array>
          </mxGeometry>
        </mxCell>
        <mxCell id="Jb7FelstHb2xow8OYDtu-60" value="Thông tin cập nhật" style="text;html=1;align=center;verticalAlign=middle;resizable=0;points=[];autosize=1;strokeColor=none;fillColor=none;" parent="1" vertex="1">
          <mxGeometry x="505" y="2740" width="120" height="30" as="geometry" />
        </mxCell>
        <mxCell id="Jb7FelstHb2xow8OYDtu-61" value="" style="endArrow=classic;html=1;rounded=0;entryX=1;entryY=0.5;entryDx=0;entryDy=0;exitX=0.324;exitY=1.07;exitDx=0;exitDy=0;exitPerimeter=0;" parent="1" source="Jb7FelstHb2xow8OYDtu-48" edge="1">
          <mxGeometry width="50" height="50" relative="1" as="geometry">
            <mxPoint x="717.0799999999999" y="2791" as="sourcePoint" />
            <mxPoint x="505" y="2790" as="targetPoint" />
            <Array as="points">
              <mxPoint x="670" y="2790" />
            </Array>
          </mxGeometry>
        </mxCell>
        <mxCell id="Jb7FelstHb2xow8OYDtu-62" value="Thông tin bài viết" style="text;html=1;align=center;verticalAlign=middle;resizable=0;points=[];autosize=1;strokeColor=none;fillColor=none;" parent="1" vertex="1">
          <mxGeometry x="540" y="2790" width="110" height="30" as="geometry" />
        </mxCell>
        <mxCell id="Qg1jEZo07QCaiqQrPTyv-1" value="&lt;span style=&quot;font-size: 15px;&quot;&gt;3.1&lt;/span&gt;" style="swimlane;childLayout=stackLayout;horizontal=1;startSize=40;horizontalStack=0;rounded=1;fontSize=14;fontStyle=0;strokeWidth=2;resizeParent=0;resizeLast=1;shadow=0;dashed=0;align=center;arcSize=4;whiteSpace=wrap;html=1;" vertex="1" parent="1">
          <mxGeometry x="355" y="3600" width="160" height="120" as="geometry" />
        </mxCell>
        <mxCell id="Qg1jEZo07QCaiqQrPTyv-2" value="&lt;font style=&quot;font-size: 15px;&quot;&gt;Tìm kiếm&amp;nbsp;&lt;br&gt;bài tuyển dụng&lt;br&gt;&lt;/font&gt;" style="align=center;strokeColor=none;fillColor=none;spacingLeft=4;fontSize=12;verticalAlign=top;resizable=0;rotatable=0;part=1;html=1;" vertex="1" parent="Qg1jEZo07QCaiqQrPTyv-1">
          <mxGeometry y="40" width="160" height="80" as="geometry" />
        </mxCell>
        <mxCell id="Qg1jEZo07QCaiqQrPTyv-3" value="&lt;span style=&quot;font-size: 15px;&quot;&gt;Nhà tuyển dụng&lt;/span&gt;" style="whiteSpace=wrap;html=1;align=center;" vertex="1" parent="1">
          <mxGeometry x="40" y="3630" width="100" height="70" as="geometry" />
        </mxCell>
        <mxCell id="Qg1jEZo07QCaiqQrPTyv-4" value="" style="endArrow=classic;html=1;rounded=0;exitX=1;exitY=0.25;exitDx=0;exitDy=0;entryX=0.006;entryY=0.138;entryDx=0;entryDy=0;entryPerimeter=0;" edge="1" parent="1">
          <mxGeometry width="50" height="50" relative="1" as="geometry">
            <mxPoint x="139.99999999999997" y="3655" as="sourcePoint" />
            <mxPoint x="350.9600000000001" y="3656.04" as="targetPoint" />
          </mxGeometry>
        </mxCell>
        <mxCell id="Qg1jEZo07QCaiqQrPTyv-5" value="Thông tin tìm kiếm" style="text;html=1;align=center;verticalAlign=middle;resizable=0;points=[];autosize=1;strokeColor=none;fillColor=none;" vertex="1" parent="1">
          <mxGeometry x="169.99999999999997" y="3630" width="120" height="30" as="geometry" />
        </mxCell>
        <mxCell id="Qg1jEZo07QCaiqQrPTyv-6" value="" style="endArrow=classic;html=1;rounded=0;entryX=1;entryY=0.5;entryDx=0;entryDy=0;exitX=0.013;exitY=0.35;exitDx=0;exitDy=0;exitPerimeter=0;" edge="1" parent="1">
          <mxGeometry width="50" height="50" relative="1" as="geometry">
            <mxPoint x="352.08" y="3673" as="sourcePoint" />
            <mxPoint x="139.99999999999997" y="3672" as="targetPoint" />
          </mxGeometry>
        </mxCell>
        <mxCell id="Qg1jEZo07QCaiqQrPTyv-7" value="Bài tuyển dụng" style="text;html=1;align=center;verticalAlign=middle;resizable=0;points=[];autosize=1;strokeColor=none;fillColor=none;" vertex="1" parent="1">
          <mxGeometry x="184.99999999999997" y="3670" width="100" height="30" as="geometry" />
        </mxCell>
        <mxCell id="Qg1jEZo07QCaiqQrPTyv-12" value="&lt;span style=&quot;font-size: 15px;&quot;&gt;3.2&lt;/span&gt;" style="swimlane;childLayout=stackLayout;horizontal=1;startSize=40;horizontalStack=0;rounded=1;fontSize=14;fontStyle=0;strokeWidth=2;resizeParent=0;resizeLast=1;shadow=0;dashed=0;align=center;arcSize=4;whiteSpace=wrap;html=1;" vertex="1" parent="1">
          <mxGeometry x="355" y="3820" width="160" height="120" as="geometry" />
        </mxCell>
        <mxCell id="Qg1jEZo07QCaiqQrPTyv-13" value="&lt;font style=&quot;font-size: 15px;&quot;&gt;Ứng tuyển&lt;br&gt;&amp;nbsp;bài viết&lt;br&gt;&lt;/font&gt;" style="align=center;strokeColor=none;fillColor=none;spacingLeft=4;fontSize=12;verticalAlign=top;resizable=0;rotatable=0;part=1;html=1;" vertex="1" parent="Qg1jEZo07QCaiqQrPTyv-12">
          <mxGeometry y="40" width="160" height="80" as="geometry" />
        </mxCell>
        <mxCell id="Qg1jEZo07QCaiqQrPTyv-14" value="" style="endArrow=classic;html=1;rounded=0;exitX=0.75;exitY=1;exitDx=0;exitDy=0;entryX=0;entryY=0.25;entryDx=0;entryDy=0;" edge="1" source="Qg1jEZo07QCaiqQrPTyv-3" target="Qg1jEZo07QCaiqQrPTyv-13" parent="1">
          <mxGeometry width="50" height="50" relative="1" as="geometry">
            <mxPoint x="134.99999999999997" y="3940" as="sourcePoint" />
            <mxPoint x="345.9600000000001" y="3941.04" as="targetPoint" />
            <Array as="points">
              <mxPoint x="115" y="3880" />
            </Array>
          </mxGeometry>
        </mxCell>
        <mxCell id="Qg1jEZo07QCaiqQrPTyv-15" value="" style="endArrow=classic;html=1;rounded=0;exitX=0.007;exitY=0.669;exitDx=0;exitDy=0;exitPerimeter=0;entryX=0.57;entryY=0.971;entryDx=0;entryDy=0;entryPerimeter=0;" edge="1" source="Qg1jEZo07QCaiqQrPTyv-13" parent="1" target="Qg1jEZo07QCaiqQrPTyv-3">
          <mxGeometry width="50" height="50" relative="1" as="geometry">
            <mxPoint x="343.96" y="3971" as="sourcePoint" />
            <mxPoint x="70" y="3700" as="targetPoint" />
            <Array as="points">
              <mxPoint x="97" y="3914" />
            </Array>
          </mxGeometry>
        </mxCell>
        <mxCell id="Qg1jEZo07QCaiqQrPTyv-16" value="Thông tin ứng tuyển" style="text;html=1;align=center;verticalAlign=middle;resizable=0;points=[];autosize=1;strokeColor=none;fillColor=none;" vertex="1" parent="1">
          <mxGeometry x="132" y="3850" width="130" height="30" as="geometry" />
        </mxCell>
        <mxCell id="Qg1jEZo07QCaiqQrPTyv-17" value="Thông báo ứng tuyển thành công" style="text;html=1;align=center;verticalAlign=middle;resizable=0;points=[];autosize=1;strokeColor=none;fillColor=none;" vertex="1" parent="1">
          <mxGeometry x="102.00000000000001" y="3910" width="200" height="30" as="geometry" />
        </mxCell>
        <mxCell id="Qg1jEZo07QCaiqQrPTyv-18" value="&lt;span style=&quot;white-space: pre;&quot;&gt;&lt;span style=&quot;white-space: pre;&quot;&gt; &lt;/span&gt; &lt;/span&gt;&amp;nbsp;Dữ liệu bài viết" style="html=1;dashed=0;whiteSpace=wrap;shape=mxgraph.dfd.dataStoreID;align=left;spacingLeft=3;points=[[0,0],[0.5,0],[1,0],[0,0.5],[1,0.5],[0,1],[0.5,1],[1,1]];rotation=0;" vertex="1" parent="1">
          <mxGeometry x="630" y="3640" width="157.92" height="50" as="geometry" />
        </mxCell>
        <mxCell id="Qg1jEZo07QCaiqQrPTyv-23" value="" style="endArrow=classic;html=1;rounded=0;exitX=0.846;exitY=0.001;exitDx=0;exitDy=0;entryX=0.278;entryY=-0.052;entryDx=0;entryDy=0;entryPerimeter=0;exitPerimeter=0;" edge="1" source="Qg1jEZo07QCaiqQrPTyv-1" target="Qg1jEZo07QCaiqQrPTyv-18" parent="1">
          <mxGeometry width="50" height="50" relative="1" as="geometry">
            <mxPoint x="390" y="3660" as="sourcePoint" />
            <mxPoint x="675" y="3635" as="targetPoint" />
            <Array as="points">
              <mxPoint x="490" y="3590" />
              <mxPoint x="674" y="3590" />
            </Array>
          </mxGeometry>
        </mxCell>
        <mxCell id="Qg1jEZo07QCaiqQrPTyv-24" value="Thông tin tìm kiếm" style="text;html=1;align=center;verticalAlign=middle;resizable=0;points=[];autosize=1;strokeColor=none;fillColor=none;" vertex="1" parent="1">
          <mxGeometry x="520" y="3590" width="120" height="30" as="geometry" />
        </mxCell>
        <mxCell id="Qg1jEZo07QCaiqQrPTyv-25" value="" style="endArrow=classic;html=1;rounded=0;entryX=0.683;entryY=0.001;entryDx=0;entryDy=0;exitX=0.5;exitY=0;exitDx=0;exitDy=0;entryPerimeter=0;" edge="1" source="Qg1jEZo07QCaiqQrPTyv-18" target="Qg1jEZo07QCaiqQrPTyv-1" parent="1">
          <mxGeometry width="50" height="50" relative="1" as="geometry">
            <mxPoint x="362.08" y="3683" as="sourcePoint" />
            <mxPoint x="149.99999999999997" y="3682" as="targetPoint" />
            <Array as="points">
              <mxPoint x="709" y="3570" />
              <mxPoint x="464" y="3570" />
            </Array>
          </mxGeometry>
        </mxCell>
        <mxCell id="Qg1jEZo07QCaiqQrPTyv-26" value="Thông tin bài viết" style="text;html=1;align=center;verticalAlign=middle;resizable=0;points=[];autosize=1;strokeColor=none;fillColor=none;" vertex="1" parent="1">
          <mxGeometry x="525" y="3550" width="110" height="30" as="geometry" />
        </mxCell>
        <mxCell id="Qg1jEZo07QCaiqQrPTyv-27" value="" style="endArrow=classic;html=1;rounded=0;exitX=1;exitY=0.25;exitDx=0;exitDy=0;entryX=0.129;entryY=1.07;entryDx=0;entryDy=0;entryPerimeter=0;" edge="1" target="Qg1jEZo07QCaiqQrPTyv-18" parent="1">
          <mxGeometry width="50" height="50" relative="1" as="geometry">
            <mxPoint x="515" y="3874.48" as="sourcePoint" />
            <mxPoint x="725.96" y="3875.52" as="targetPoint" />
            <Array as="points">
              <mxPoint x="650" y="3874" />
            </Array>
          </mxGeometry>
        </mxCell>
        <mxCell id="Qg1jEZo07QCaiqQrPTyv-28" value="Thông tin ứng tuyển" style="text;html=1;align=center;verticalAlign=middle;resizable=0;points=[];autosize=1;strokeColor=none;fillColor=none;" vertex="1" parent="1">
          <mxGeometry x="510" y="3850" width="130" height="30" as="geometry" />
        </mxCell>
        <mxCell id="Qg1jEZo07QCaiqQrPTyv-29" value="" style="endArrow=classic;html=1;rounded=0;entryX=1;entryY=0.5;entryDx=0;entryDy=0;exitX=0.324;exitY=1.07;exitDx=0;exitDy=0;exitPerimeter=0;" edge="1" source="Qg1jEZo07QCaiqQrPTyv-18" parent="1">
          <mxGeometry width="50" height="50" relative="1" as="geometry">
            <mxPoint x="727.0799999999999" y="3901" as="sourcePoint" />
            <mxPoint x="515" y="3900" as="targetPoint" />
            <Array as="points">
              <mxPoint x="680" y="3900" />
            </Array>
          </mxGeometry>
        </mxCell>
        <mxCell id="Qg1jEZo07QCaiqQrPTyv-30" value="Thông tin bài viết" style="text;html=1;align=center;verticalAlign=middle;resizable=0;points=[];autosize=1;strokeColor=none;fillColor=none;" vertex="1" parent="1">
          <mxGeometry x="550" y="3900" width="110" height="30" as="geometry" />
        </mxCell>
        <mxCell id="Qg1jEZo07QCaiqQrPTyv-31" value="&lt;span style=&quot;font-size: 15px;&quot;&gt;3.3&lt;/span&gt;" style="swimlane;childLayout=stackLayout;horizontal=1;startSize=40;horizontalStack=0;rounded=1;fontSize=14;fontStyle=0;strokeWidth=2;resizeParent=0;resizeLast=1;shadow=0;dashed=0;align=center;arcSize=4;whiteSpace=wrap;html=1;" vertex="1" parent="1">
          <mxGeometry x="355" y="4010" width="160" height="120" as="geometry" />
        </mxCell>
        <mxCell id="Qg1jEZo07QCaiqQrPTyv-32" value="&lt;font style=&quot;font-size: 15px;&quot;&gt;Xem bài viết&lt;br&gt;đã ứng tuyển&lt;br&gt;&lt;/font&gt;" style="align=center;strokeColor=none;fillColor=none;spacingLeft=4;fontSize=12;verticalAlign=top;resizable=0;rotatable=0;part=1;html=1;" vertex="1" parent="Qg1jEZo07QCaiqQrPTyv-31">
          <mxGeometry y="40" width="160" height="80" as="geometry" />
        </mxCell>
        <mxCell id="Qg1jEZo07QCaiqQrPTyv-33" value="" style="endArrow=classic;html=1;rounded=0;exitX=0.38;exitY=1.014;exitDx=0;exitDy=0;entryX=0;entryY=0.25;entryDx=0;entryDy=0;exitPerimeter=0;" edge="1" parent="1" source="Qg1jEZo07QCaiqQrPTyv-3">
          <mxGeometry width="50" height="50" relative="1" as="geometry">
            <mxPoint x="115" y="3880" as="sourcePoint" />
            <mxPoint x="355" y="4060" as="targetPoint" />
            <Array as="points">
              <mxPoint x="80" y="4060" />
            </Array>
          </mxGeometry>
        </mxCell>
        <mxCell id="Qg1jEZo07QCaiqQrPTyv-34" value="Yêu cầu xem bài đã ứng tuyển" style="text;html=1;align=center;verticalAlign=middle;resizable=0;points=[];autosize=1;strokeColor=none;fillColor=none;" vertex="1" parent="1">
          <mxGeometry x="107" y="4038" width="190" height="30" as="geometry" />
        </mxCell>
        <mxCell id="Qg1jEZo07QCaiqQrPTyv-35" value="" style="endArrow=classic;html=1;rounded=0;entryX=0.16;entryY=1;entryDx=0;entryDy=0;entryPerimeter=0;" edge="1" parent="1" target="Qg1jEZo07QCaiqQrPTyv-3">
          <mxGeometry width="50" height="50" relative="1" as="geometry">
            <mxPoint x="350" y="4092" as="sourcePoint" />
            <mxPoint x="90.5" y="3876" as="targetPoint" />
            <Array as="points">
              <mxPoint x="60" y="4092" />
            </Array>
          </mxGeometry>
        </mxCell>
        <mxCell id="Qg1jEZo07QCaiqQrPTyv-36" value="Bài viết đã ứng tuyển" style="text;html=1;align=center;verticalAlign=middle;resizable=0;points=[];autosize=1;strokeColor=none;fillColor=none;" vertex="1" parent="1">
          <mxGeometry x="160" y="4088" width="140" height="30" as="geometry" />
        </mxCell>
        <mxCell id="Qg1jEZo07QCaiqQrPTyv-37" value="" style="endArrow=classic;html=1;rounded=0;exitX=1;exitY=0.25;exitDx=0;exitDy=0;entryX=0.437;entryY=1.02;entryDx=0;entryDy=0;entryPerimeter=0;" edge="1" parent="1" target="Qg1jEZo07QCaiqQrPTyv-18">
          <mxGeometry width="50" height="50" relative="1" as="geometry">
            <mxPoint x="512.5" y="4068" as="sourcePoint" />
            <mxPoint x="647.5" y="3887.52" as="targetPoint" />
            <Array as="points">
              <mxPoint x="700" y="4070" />
            </Array>
          </mxGeometry>
        </mxCell>
        <mxCell id="Qg1jEZo07QCaiqQrPTyv-38" value="Từ khóa tìm kiếm" style="text;html=1;align=center;verticalAlign=middle;resizable=0;points=[];autosize=1;strokeColor=none;fillColor=none;" vertex="1" parent="1">
          <mxGeometry x="540" y="4038" width="120" height="30" as="geometry" />
        </mxCell>
        <mxCell id="Qg1jEZo07QCaiqQrPTyv-39" value="" style="endArrow=classic;html=1;rounded=0;entryX=1;entryY=0.5;entryDx=0;entryDy=0;exitX=0.64;exitY=1.04;exitDx=0;exitDy=0;exitPerimeter=0;" edge="1" parent="1" source="Qg1jEZo07QCaiqQrPTyv-18">
          <mxGeometry width="50" height="50" relative="1" as="geometry">
            <mxPoint x="681" y="3886" as="sourcePoint" />
            <mxPoint x="515" y="4092" as="targetPoint" />
            <Array as="points">
              <mxPoint x="730" y="4092" />
            </Array>
          </mxGeometry>
        </mxCell>
        <mxCell id="Qg1jEZo07QCaiqQrPTyv-40" value="Thông tin bài viết" style="text;html=1;align=center;verticalAlign=middle;resizable=0;points=[];autosize=1;strokeColor=none;fillColor=none;" vertex="1" parent="1">
          <mxGeometry x="545" y="4088" width="110" height="30" as="geometry" />
        </mxCell>
      </root>
    </mxGraphModel>
  </diagram>
  <diagram id="59qvUgmUdWtXkvUdZ8kX" name="Trang-3">
    <mxGraphModel grid="1" page="1" gridSize="10" guides="1" tooltips="1" connect="1" arrows="1" fold="1" pageScale="1" pageWidth="827" pageHeight="1169" math="0" shadow="0">
      <root>
        <mxCell id="0" />
        <mxCell id="1" parent="0" />
        <mxCell id="hn-vsnWN8IU3eC3K9XhW-1" value="&lt;span style=&quot;font-size: 15px;&quot;&gt;4.1&lt;/span&gt;" style="swimlane;childLayout=stackLayout;horizontal=1;startSize=40;horizontalStack=0;rounded=1;fontSize=14;fontStyle=0;strokeWidth=2;resizeParent=0;resizeLast=1;shadow=0;dashed=0;align=center;arcSize=4;whiteSpace=wrap;html=1;" vertex="1" parent="1">
          <mxGeometry x="345" y="2490" width="160" height="120" as="geometry" />
        </mxCell>
        <mxCell id="hn-vsnWN8IU3eC3K9XhW-2" value="&lt;font style=&quot;font-size: 15px;&quot;&gt;Phê duyệt &lt;br&gt;bài tuyển dụng&lt;br&gt;&lt;/font&gt;" style="align=center;strokeColor=none;fillColor=none;spacingLeft=4;fontSize=12;verticalAlign=top;resizable=0;rotatable=0;part=1;html=1;" vertex="1" parent="hn-vsnWN8IU3eC3K9XhW-1">
          <mxGeometry y="40" width="160" height="80" as="geometry" />
        </mxCell>
        <mxCell id="hn-vsnWN8IU3eC3K9XhW-3" value="&lt;span style=&quot;font-size: 15px;&quot;&gt;Quản trị viên&lt;/span&gt;" style="whiteSpace=wrap;html=1;align=center;" vertex="1" parent="1">
          <mxGeometry x="47" y="2730" width="100" height="70" as="geometry" />
        </mxCell>
        <mxCell id="hn-vsnWN8IU3eC3K9XhW-4" value="" style="endArrow=classic;html=1;rounded=0;exitX=0.39;exitY=-0.014;exitDx=0;exitDy=0;entryX=0.006;entryY=0.138;entryDx=0;entryDy=0;entryPerimeter=0;exitPerimeter=0;" edge="1" parent="1" source="hn-vsnWN8IU3eC3K9XhW-3">
          <mxGeometry width="50" height="50" relative="1" as="geometry">
            <mxPoint x="129.99999999999997" y="2545" as="sourcePoint" />
            <mxPoint x="340.9600000000001" y="2546.04" as="targetPoint" />
            <Array as="points">
              <mxPoint x="86" y="2546" />
            </Array>
          </mxGeometry>
        </mxCell>
        <mxCell id="hn-vsnWN8IU3eC3K9XhW-5" value="Yêu cầu phê duyệt" style="text;html=1;align=center;verticalAlign=middle;resizable=0;points=[];autosize=1;strokeColor=none;fillColor=none;" vertex="1" parent="1">
          <mxGeometry x="159.99999999999997" y="2520" width="120" height="30" as="geometry" />
        </mxCell>
        <mxCell id="hn-vsnWN8IU3eC3K9XhW-6" value="" style="endArrow=classic;html=1;rounded=0;entryX=0.75;entryY=0;entryDx=0;entryDy=0;" edge="1" parent="1" target="hn-vsnWN8IU3eC3K9XhW-3">
          <mxGeometry width="50" height="50" relative="1" as="geometry">
            <mxPoint x="340" y="2560" as="sourcePoint" />
            <mxPoint x="129.99999999999997" y="2562" as="targetPoint" />
            <Array as="points">
              <mxPoint x="122" y="2560" />
            </Array>
          </mxGeometry>
        </mxCell>
        <mxCell id="hn-vsnWN8IU3eC3K9XhW-7" value="Thông báo phê duyệt thành công" style="text;html=1;align=center;verticalAlign=middle;resizable=0;points=[];autosize=1;strokeColor=none;fillColor=none;" vertex="1" parent="1">
          <mxGeometry x="124.99999999999997" y="2560" width="200" height="30" as="geometry" />
        </mxCell>
        <mxCell id="hn-vsnWN8IU3eC3K9XhW-12" value="&lt;span style=&quot;font-size: 15px;&quot;&gt;4.2&lt;/span&gt;" style="swimlane;childLayout=stackLayout;horizontal=1;startSize=40;horizontalStack=0;rounded=1;fontSize=14;fontStyle=0;strokeWidth=2;resizeParent=0;resizeLast=1;shadow=0;dashed=0;align=center;arcSize=4;whiteSpace=wrap;html=1;" vertex="1" parent="1">
          <mxGeometry x="345" y="2710" width="160" height="120" as="geometry" />
        </mxCell>
        <mxCell id="hn-vsnWN8IU3eC3K9XhW-13" value="&lt;font style=&quot;font-size: 15px;&quot;&gt;Quản lý&lt;br&gt;&amp;nbsp;chính sách&lt;br&gt;&lt;/font&gt;" style="align=center;strokeColor=none;fillColor=none;spacingLeft=4;fontSize=12;verticalAlign=top;resizable=0;rotatable=0;part=1;html=1;" vertex="1" parent="hn-vsnWN8IU3eC3K9XhW-12">
          <mxGeometry y="40" width="160" height="80" as="geometry" />
        </mxCell>
        <mxCell id="hn-vsnWN8IU3eC3K9XhW-18" value="&lt;span style=&quot;white-space: pre;&quot;&gt;&lt;span style=&quot;white-space: pre;&quot;&gt; &lt;/span&gt; &lt;/span&gt;&amp;nbsp;Dữ liệu bài viết" style="html=1;dashed=0;whiteSpace=wrap;shape=mxgraph.dfd.dataStoreID;align=left;spacingLeft=3;points=[[0,0],[0.5,0],[1,0],[0,0.5],[1,0.5],[0,1],[0.5,1],[1,1]];rotation=0;" vertex="1" parent="1">
          <mxGeometry x="620" y="2530" width="157.92" height="50" as="geometry" />
        </mxCell>
        <mxCell id="hn-vsnWN8IU3eC3K9XhW-23" value="" style="endArrow=classic;html=1;rounded=0;exitX=0.846;exitY=0.001;exitDx=0;exitDy=0;entryX=0.278;entryY=-0.052;entryDx=0;entryDy=0;entryPerimeter=0;exitPerimeter=0;" edge="1" parent="1" source="hn-vsnWN8IU3eC3K9XhW-1" target="hn-vsnWN8IU3eC3K9XhW-18">
          <mxGeometry width="50" height="50" relative="1" as="geometry">
            <mxPoint x="380" y="2550" as="sourcePoint" />
            <mxPoint x="665" y="2525" as="targetPoint" />
            <Array as="points">
              <mxPoint x="480" y="2480" />
              <mxPoint x="664" y="2480" />
            </Array>
          </mxGeometry>
        </mxCell>
        <mxCell id="hn-vsnWN8IU3eC3K9XhW-24" value="Trạng thái cập nhật" style="text;html=1;align=center;verticalAlign=middle;resizable=0;points=[];autosize=1;strokeColor=none;fillColor=none;" vertex="1" parent="1">
          <mxGeometry x="505" y="2480" width="130" height="30" as="geometry" />
        </mxCell>
        <mxCell id="hn-vsnWN8IU3eC3K9XhW-25" value="" style="endArrow=classic;html=1;rounded=0;entryX=0.683;entryY=0.001;entryDx=0;entryDy=0;exitX=0.5;exitY=0;exitDx=0;exitDy=0;entryPerimeter=0;" edge="1" parent="1" source="hn-vsnWN8IU3eC3K9XhW-18" target="hn-vsnWN8IU3eC3K9XhW-1">
          <mxGeometry width="50" height="50" relative="1" as="geometry">
            <mxPoint x="352.08" y="2573" as="sourcePoint" />
            <mxPoint x="139.99999999999997" y="2572" as="targetPoint" />
            <Array as="points">
              <mxPoint x="699" y="2460" />
              <mxPoint x="454" y="2460" />
            </Array>
          </mxGeometry>
        </mxCell>
        <mxCell id="hn-vsnWN8IU3eC3K9XhW-26" value="Thông tin bài viết" style="text;html=1;align=center;verticalAlign=middle;resizable=0;points=[];autosize=1;strokeColor=none;fillColor=none;" vertex="1" parent="1">
          <mxGeometry x="515" y="2440" width="110" height="30" as="geometry" />
        </mxCell>
        <mxCell id="hn-vsnWN8IU3eC3K9XhW-32" value="&lt;span style=&quot;font-size: 15px;&quot;&gt;4.3&lt;/span&gt;" style="swimlane;childLayout=stackLayout;horizontal=1;startSize=40;horizontalStack=0;rounded=1;fontSize=14;fontStyle=0;strokeWidth=2;resizeParent=0;resizeLast=1;shadow=0;dashed=0;align=center;arcSize=4;whiteSpace=wrap;html=1;" vertex="1" parent="1">
          <mxGeometry x="345" y="2880" width="160" height="120" as="geometry" />
        </mxCell>
        <mxCell id="hn-vsnWN8IU3eC3K9XhW-33" value="&lt;font style=&quot;font-size: 15px;&quot;&gt;Xem báo cáo&lt;br&gt;&lt;/font&gt;" style="align=center;strokeColor=none;fillColor=none;spacingLeft=4;fontSize=12;verticalAlign=top;resizable=0;rotatable=0;part=1;html=1;" vertex="1" parent="hn-vsnWN8IU3eC3K9XhW-32">
          <mxGeometry y="40" width="160" height="80" as="geometry" />
        </mxCell>
        <mxCell id="pk2P12oiwqDwALwBgtwR-1" value="&lt;span style=&quot;white-space: pre;&quot;&gt;&lt;span style=&quot;white-space: pre;&quot;&gt; &lt;/span&gt; &lt;/span&gt;&amp;nbsp;Dữ liệu hệ thống" style="html=1;dashed=0;whiteSpace=wrap;shape=mxgraph.dfd.dataStoreID;align=left;spacingLeft=3;points=[[0,0],[0.5,0],[1,0],[0,0.5],[1,0.5],[0,1],[0.5,1],[1,1]];rotation=0;" vertex="1" parent="1">
          <mxGeometry x="635" y="2740" width="157.92" height="50" as="geometry" />
        </mxCell>
        <mxCell id="pk2P12oiwqDwALwBgtwR-2" value="" style="endArrow=classic;html=1;rounded=0;entryX=-0.012;entryY=0.138;entryDx=0;entryDy=0;entryPerimeter=0;" edge="1" parent="1" target="hn-vsnWN8IU3eC3K9XhW-13">
          <mxGeometry width="50" height="50" relative="1" as="geometry">
            <mxPoint x="150" y="2760" as="sourcePoint" />
            <mxPoint x="440" y="2700" as="targetPoint" />
          </mxGeometry>
        </mxCell>
        <mxCell id="pk2P12oiwqDwALwBgtwR-3" value="" style="endArrow=classic;html=1;rounded=0;exitX=-0.025;exitY=0.425;exitDx=0;exitDy=0;exitPerimeter=0;entryX=1;entryY=0.75;entryDx=0;entryDy=0;" edge="1" parent="1" source="hn-vsnWN8IU3eC3K9XhW-13" target="hn-vsnWN8IU3eC3K9XhW-3">
          <mxGeometry width="50" height="50" relative="1" as="geometry">
            <mxPoint x="160" y="2770" as="sourcePoint" />
            <mxPoint x="180" y="2850" as="targetPoint" />
          </mxGeometry>
        </mxCell>
        <mxCell id="pk2P12oiwqDwALwBgtwR-4" value="Thông tin chính sách" style="text;html=1;align=center;verticalAlign=middle;resizable=0;points=[];autosize=1;strokeColor=none;fillColor=none;" vertex="1" parent="1">
          <mxGeometry x="180" y="2730" width="130" height="30" as="geometry" />
        </mxCell>
        <mxCell id="pk2P12oiwqDwALwBgtwR-5" value="Thông tin chính sách" style="text;html=1;align=center;verticalAlign=middle;resizable=0;points=[];autosize=1;strokeColor=none;fillColor=none;" vertex="1" parent="1">
          <mxGeometry x="190" y="2780" width="130" height="30" as="geometry" />
        </mxCell>
        <mxCell id="pk2P12oiwqDwALwBgtwR-6" value="" style="endArrow=classic;html=1;rounded=0;entryX=0.032;entryY=0.4;entryDx=0;entryDy=0;entryPerimeter=0;" edge="1" parent="1" target="pk2P12oiwqDwALwBgtwR-1">
          <mxGeometry width="50" height="50" relative="1" as="geometry">
            <mxPoint x="503" y="2760" as="sourcePoint" />
            <mxPoint x="696" y="2761" as="targetPoint" />
          </mxGeometry>
        </mxCell>
        <mxCell id="pk2P12oiwqDwALwBgtwR-7" value="" style="endArrow=classic;html=1;rounded=0;exitX=-0.006;exitY=0.88;exitDx=0;exitDy=0;exitPerimeter=0;entryX=1;entryY=0.75;entryDx=0;entryDy=0;" edge="1" parent="1" source="pk2P12oiwqDwALwBgtwR-1">
          <mxGeometry width="50" height="50" relative="1" as="geometry">
            <mxPoint x="694" y="2784" as="sourcePoint" />
            <mxPoint x="500" y="2783" as="targetPoint" />
          </mxGeometry>
        </mxCell>
        <mxCell id="pk2P12oiwqDwALwBgtwR-8" value="Thông tin chính sách" style="text;html=1;align=center;verticalAlign=middle;resizable=0;points=[];autosize=1;strokeColor=none;fillColor=none;" vertex="1" parent="1">
          <mxGeometry x="510" y="2730" width="130" height="30" as="geometry" />
        </mxCell>
        <mxCell id="pk2P12oiwqDwALwBgtwR-9" value="Thông tin chính sách" style="text;html=1;align=center;verticalAlign=middle;resizable=0;points=[];autosize=1;strokeColor=none;fillColor=none;" vertex="1" parent="1">
          <mxGeometry x="515" y="2780" width="130" height="30" as="geometry" />
        </mxCell>
        <mxCell id="pk2P12oiwqDwALwBgtwR-10" value="" style="endArrow=classic;html=1;rounded=0;entryX=-0.012;entryY=0.138;entryDx=0;entryDy=0;entryPerimeter=0;exitX=0.69;exitY=1.043;exitDx=0;exitDy=0;exitPerimeter=0;" edge="1" parent="1" source="hn-vsnWN8IU3eC3K9XhW-3">
          <mxGeometry width="50" height="50" relative="1" as="geometry">
            <mxPoint x="152" y="2930" as="sourcePoint" />
            <mxPoint x="345" y="2931" as="targetPoint" />
            <Array as="points">
              <mxPoint x="116" y="2931" />
            </Array>
          </mxGeometry>
        </mxCell>
        <mxCell id="pk2P12oiwqDwALwBgtwR-11" value="" style="endArrow=classic;html=1;rounded=0;exitX=-0.025;exitY=0.425;exitDx=0;exitDy=0;exitPerimeter=0;entryX=0.36;entryY=1.029;entryDx=0;entryDy=0;entryPerimeter=0;" edge="1" parent="1" target="hn-vsnWN8IU3eC3K9XhW-3">
          <mxGeometry width="50" height="50" relative="1" as="geometry">
            <mxPoint x="341" y="2961" as="sourcePoint" />
            <mxPoint x="147" y="2960" as="targetPoint" />
            <Array as="points">
              <mxPoint x="83" y="2961" />
            </Array>
          </mxGeometry>
        </mxCell>
        <mxCell id="pk2P12oiwqDwALwBgtwR-12" value="Thông tin tìm kiếm" style="text;html=1;align=center;verticalAlign=middle;resizable=0;points=[];autosize=1;strokeColor=none;fillColor=none;" vertex="1" parent="1">
          <mxGeometry x="160" y="2908" width="120" height="30" as="geometry" />
        </mxCell>
        <mxCell id="pk2P12oiwqDwALwBgtwR-13" value="Báo cáo thống kê" style="text;html=1;align=center;verticalAlign=middle;resizable=0;points=[];autosize=1;strokeColor=none;fillColor=none;" vertex="1" parent="1">
          <mxGeometry x="140" y="2960" width="120" height="30" as="geometry" />
        </mxCell>
        <mxCell id="pk2P12oiwqDwALwBgtwR-17" value="" style="endArrow=classic;html=1;rounded=0;exitX=1;exitY=0.25;exitDx=0;exitDy=0;" edge="1" parent="1" source="hn-vsnWN8IU3eC3K9XhW-33">
          <mxGeometry width="50" height="50" relative="1" as="geometry">
            <mxPoint x="400" y="2930" as="sourcePoint" />
            <mxPoint x="690" y="2790" as="targetPoint" />
            <Array as="points">
              <mxPoint x="690" y="2940" />
            </Array>
          </mxGeometry>
        </mxCell>
        <mxCell id="pk2P12oiwqDwALwBgtwR-18" value="Thông tin tìm kiếm" style="text;html=1;align=center;verticalAlign=middle;resizable=0;points=[];autosize=1;strokeColor=none;fillColor=none;" vertex="1" parent="1">
          <mxGeometry x="540" y="2908" width="120" height="30" as="geometry" />
        </mxCell>
        <mxCell id="pk2P12oiwqDwALwBgtwR-19" value="" style="endArrow=classic;html=1;rounded=0;exitX=0.5;exitY=1;exitDx=0;exitDy=0;entryX=1;entryY=0.75;entryDx=0;entryDy=0;" edge="1" parent="1" source="pk2P12oiwqDwALwBgtwR-1">
          <mxGeometry width="50" height="50" relative="1" as="geometry">
            <mxPoint x="697" y="2961" as="sourcePoint" />
            <mxPoint x="503" y="2960" as="targetPoint" />
            <Array as="points">
              <mxPoint x="714" y="2960" />
            </Array>
          </mxGeometry>
        </mxCell>
        <mxCell id="pk2P12oiwqDwALwBgtwR-20" value="Dữ liệu thống kê" style="text;html=1;align=center;verticalAlign=middle;resizable=0;points=[];autosize=1;strokeColor=none;fillColor=none;" vertex="1" parent="1">
          <mxGeometry x="565" y="2960" width="110" height="30" as="geometry" />
        </mxCell>
      </root>
    </mxGraphModel>
  </diagram>
</mxfile>
